<mxfile host="65bd71144e">
    <diagram id="RDGzsVoqvfg8o_5QyICr" name="Page-1">
        <mxGraphModel dx="1708" dy="539" grid="1" gridSize="10" guides="1" tooltips="1" connect="1" arrows="1" fold="1" page="1" pageScale="1" pageWidth="850" pageHeight="1100" math="0" shadow="0">
            <root>
                <mxCell id="0"/>
                <mxCell id="1" parent="0"/>
                <mxCell id="4" value="" style="shape=image;verticalLabelPosition=bottom;labelBackgroundColor=default;verticalAlign=top;aspect=fixed;imageAspect=0;image=data:image/png,iVBORw0KGgoAAAANSUhEUgAACNMAAAXlCAYAAAAh3wyLAACAAElEQVR4XuzaIW4EQBADwfv/pxMpWtTSgKNOFTQ07s8PAAAAAAAAAADw59MBAAAAAAAAAAD+KzENAAAAAAAAAAA8YhoAAAAAAAAAAHjENAAAAAAAAAAA8IhpAAAAAAAAAADgEdMAAAAAAAAAAMAjpgEAAAAAAAAAgEdMAwAAAAAAAAAAj5gGAAAAAAAAAAAeMQ0AAAAAAAAAADxiGgAAAAAAAAAAeMQ0AAAAAAAAAADwiGkAAAAAAAAAAOAR0wAAAAAAAAAAwCOmAQAAAAAAAACAR0wDAAAAAAAAAACPmAYAAAAAAAAAAB4xDQAAAAAAAAAAPGIaAAAAAAAAAAB4xDQAAAAAAAAAAPCIaQAAAAAAAAAA4BHTAAAAAAAAAADAI6YBAAAAAAAAAIBHTAMAAAAAAAAAAI+YBgAAAAAAAAAAHjENAAAAAAAAAAA8YhoAAAAAAAAAAHjENAAAAAAAAAAA8IhpAAAAAAAAAADgEdMAAAAAAAAAAMAjpgEAAAAAAAAAgEdMAwAAAAAAAAAAj5gGAAAAAAAAAAAeMQ0AAAAAAAAAADxiGgAAAAAAAAAAeMQ0AAAAAAAAAADwiGkAAAAAAAAAAOAR0wAAAAAAAAAAwCOmAQAAAAAAAACAR0wDAAAAAAAAAACPmAYAAAAAAAAAAB4xDQAAAAAAAAAAPGIaAAAAAAAAAAB4xDQAAAAAAAAAAPCIaQAAAAAAAAAA4BHTAAAAAAAAAADAI6YBAAAAAAAAAIBHTAMAAAAAAAAAAI+YBgAAAAAAAAAAHjENAAAAAAAAAAA8YhoAAAAAAAAAAHjENAAAAAAAAAAA8IhpAAAAAAAAAADgEdMAAAAAAAAAAMAjpgEAAAAAAAAAgEdMAwAAAAAAAAAAj5gGAAAAAAAAAAAeMQ0AAAAAAAAAADxiGgAAAAAAAAAAeMQ0AAAAAAAAAADwiGkAAAAAAAAAAOAR0wAAAAAAAAAAwCOmAQAAAAAAAACAR0wDAAAAAAAAAACPmAYAAAAAAAAAAB4xDQAAAAAAAAAAPGIaAAAAAAAAAAB4xDQAAAAAAAAAAPCIaQAAAAAAAAAA4BHTAAAAAAAAAADAI6YBAAAAAAAAAIBHTAMAAAAAAAAAAI+YBgAAAAAAAAAAHjENAAAAAAAAAAA8YpovfAAAAAAAAAAA2NZghFu/AwAAAAAAAABgTIMRbv0OAAAAAAAAAIAxDUa49TsAAAAAAAAAAMY0GOHW7wAAAAAAAAAAGNNghFu/AwAAAAAAAABgTIMRbv0OAAAAAAAAAIAxDUa49TsAAAAAAAAAAMY0GOHW7wAAAAAAAAAAGNNghFu/AwAAAAAAAABgTIMRbv0OAAAAAAAAAIAxDUa49TsAAAAAAAAAAMY0GOHW7wAAAAAAAAAAGNNghFu/AwAAAAAAAABgTIMRbv0OAAAAAAAAAIAxDUa49TsAAAAAAAAAAMY0GOHW7wAAAAAAAAAAGNNghFu/AwAAAAAAAABgTIMRbv0OAAAAAAAAAIAxDUa49TsAAAAAAAAAAMY0GOHW7wAAAAAAAAAAGNNghFu/AwAAAAAAAABgTIMRbv0OAAAAAAAAAIAxDUa49TsAAAAAAAAAAMY0GOHW7wAAAAAAAAAAGNNghFu/AwAAAAAAAABgTIMRbv0OAAAAAAAAAIAxDUa49TsAAAAAAAAAAMY0GOHW7wAAAAAAAAAAGNNghFu/AwAAAAAAAABgTIMRbv0OAAAAAAAAAIAxDUa49TsAAAAAAAAAAMY0GOHW7wAAAAAAAAAAGNNghFu/AwAAAAAAAABgTIMRbv0OAAAAAAAAAIAxDUa49TsAAAAAAAAAAMY0GOHW7wAAAAAAAAAAGNNghFu/AwAAAAAAAABgTIMRbv0OAAAAAAAAAIAxDUa49TsAAAAAAAAAAMY0GOHW7wAAAAAAAAAAGNNghFu/AwAAAAAAAABgTIMRbv0OAAAAAAAAAIAxDUa49TsAAAAAAAAAAMY0GOHW7wAAAAAAAAAAGNNghFu/AwAAAAAAAABgTIMRbv0OAAAAAAAAAIAxDUa49TsAAAAAAAAAAMY0GOHW7wAAAAAAAAAAGNNghFu/AwAAAAAAAABgTIMRbv0OAAAAAAAAAIAxDUa49TsAAAAAAAAAAMY0GOHW7wAAAAAAAAAAGNNghFu/AwAAAAAAAABgTIMRbv0OAAAAAAAAAIAxDUa49TsAAAAAAAAAAMY0GOHW7wAAAAAAAAAAGNNghFu/AwAAAAAAAABgTIMRbv0OAAAAAAAAAIAxDUa49TsAAAAAAAAAAMY0GOHW7wAAAAAAAAAAGNNghFu/AwAAAAAAAABgTIMRbv0OAAAAAAAAAIAxDUa49TsAAAAAAAAAAMY0GOHW7wAAAAAAAAAAGNNghFu/AwAAAAAAAABgTIMRbv0OAAAAAAAAAIAxDUa49TsAAAAAAAAAAMY0GOHW7wAAAAAAAAAAGNNghFu/AwAAAAAAAABgTIMRbv0OAAAAAAAAAIAxDUa49TsAAAAAAAAAAMY0GOHW7wAAAAAAAAAAGNNghFu/AwAAAAAAAABgTIMRbv0OAAAAAAAAAIAxDUa49TsAAAAAAAAAAMY0GOHW7wAAAAAAAAAAGNNghFu/AwAAAAAAAABgTIMRbv0OAAAAAAAAAIAxDUa49TsAAAAAAAAAAMY0GOHW7wAAAAAAAAAAGNNghFu/AwAAAAAAAABgTIMRbv0OAAAAAAAAAIAxDUa49TsAAAAAAAAAAMY0GOHW7wAAAAAAAAAAGNNghFu/AwAAAAAAAABgTIMRbv0OAAAAAAAAAIAxDUa49TsAAAAAAAAAAMY0GOHW7wAAAAAAAAAAGNNghFu/AwAAAAAAAABgTIMRbv0OAAAAAAAAAIAxDUa49TsAAAAAAAAAAMY0GOHW7wAAAAAAAAAAGNNghFu/AwAAAAAAAABgTIMRbv0OAAAAAAAAAIAxDUa49TsAAAAAAAAAAMY0GOHW7wAAAAAAAAAAGNNghFu/AwAAAAAAAABgTIMRbv0OAAAAAAAAAIAxDUa49TsAAAAAAAAAAMY0GOHW7wAAAAAAAAAAGNNghFu/AwAAAAAAAABgTIMRbv0OAAAAAAAAAIAxDUa49TsAAAAAAAAAAMY0GOHW7wAAAAAAAAAAGNNghFu/AwAAAAAAAABgTIMRbv0OAAAAAAAAAIAxDUa49TsAAAAAAAAAAMY0GOHW7wAAAAAAAAAAGNNghFu/AwAAAAAAAABgTIMRbv0OAAAAAAAAAIAxDUa49TsAAAAAAAAAAMY0GOHW7wAAAAAAAAAAGNNghFu/AwAAAAAAAABgTIMRbv0OAAAAAAAAAIAxDUa49TsAAAAAAAAAAMY0GOHW7wAAAAAAAAAAGNNghFu/AwAAAAAAAABgTIMRbv0OAAAAAAAAAIAxDUa49TsAAAAAAAAAAMY0GOHW7wAAAAAAAAAAGNNghFu/AwAAAAAAAABgTIMRbv0OAAAAAAAAAIAxDUa49TsAAAAAAAAAAMY0GOHW7wAAAAAAAAAAGNNghFu/AwAAAAAAAABgTIMRbv0OAAAAAAAAAIAxDUa49TsAAAAAAAAAAMY0GOHW7wAAAAAAAAAAGNNghFu/AwAAAAAAAABgTIMRbv0OAAAAAAAAAIAxDUa49TsAAAAAAAAAAMY0GOHW7wAAAAAAAAAAGNNghFu/AwAAAAAAAABgTIMRbv0OAAAAAAAAAIAxDUa49TsAAAAAAAAAAMY0GOHW7wAAAAAAAAAAGNNghFu/AwAAAAAAAABgTIMRbv0OAAAAAAAAAIAxDUa49TsAAAAAAAAAAMY0GOHW7wAAAAAAAAAAGNNghFu/AwAAAAAAAABgTIMRbv0OAAAAAAAAAIAxDUa49TsAAAAAAAAAAMY0GOHW7wAAAAAAAAAAGNNghFu/AwAAAAAAAABgTIMRbv0OAAAAAAAAAIAxDUa49TsAAAAAAAAAAMY0GOHW7wAAAAAAAAAAGNNghFu/AwAAAAAAAABgTIMRbv0OAAAAAAAAAIAxDUa49TsAAAAAAAAAAMY0GOHW7wAAAAAAAAAAGNNghFu/AwAAAAAAAABgTIMRbv0OAAAAAAAAAIAxDUa49TsAAAAAAAAAAMY0GOHW7wAAAAAAAAAAGNNghFu/AwAAAAAAAABgTIMRbv0OAAAAAAAAAIAxDUa49TsAAAAAAAAAAMY0GOHW7wAAAAAAAAAAGNNghFu/AwAAAAAAAABgTIMRbv0OAAAAAAAAAIAxDUa49TsAAAAAAAAAAMY0GOHW7wAAAAAAAAAAGNNghFu/AwAAAAAAAABgTIMRbv0OAAAAAAAAAIAxDUa49TsAAAAAAAAAAMY0GOHW7wAAAAAAAAAAGNNghFu/AwAAAAAAAABgTIMRbv0OAAAAAAAAAIAxDUa49TsAAAAAAAAAAMY0GOHW7wAAAAAAAAAAGNNghFu/AwAAAAAAAABgTIMRbv0OAAAAAAAAAIAxDUa49TsAAAAAAAAAAMY0GOHW7wAAAAAAAAAAGNNghFu/AwAAAAAAAABgTIMRbv0OAAAAAAAAAIAxDUa49TsAAAAAAAAAAMY0GOHW7wAAAAAAAAAAGNNghFu/AwAAAAAAAABgTIMRbv0OAAAAAAAAAIAxDUa49TsAAAAAAAAAAMY0GOHW7wAAAAAAAAAAGNNghFu/AwAAAAAAAABgTIMRbv0OAAAAAAAAAIAxDUa49TsAAAAAAAAAAMY0GOHW7wAAAAAAAAAAGNNghFu/AwAAAAAAAABgTIMRbv0OAAAAAAAAAIAxDUa49TsAAAAAAAAAAMY0GOHW7wAAAAAAAAAAGNNghFu/AwAAAAAAAABgTIMRbv0OAAAAAAAAAIAxDUa49TsAAAAAAAAAAMY0GOHW7wAAAAAAAAAAGNNghFu/AwAAAAAAAABgTIMRbv0OAAAAAAAAAIAxDUa49TsAAAAAAAAAAMY0GOHW7wAAAAAAAAAAGNNghFu/AwAAAAAAAABgTIMRbv0OAAAAAAAAAIAxDUa49TsAAAAAAAAAAMY0GOHW7wAAAAAAAAAAGNNghFu/AwAAAAAAAABgTIMRbv0OAAAAAAAAAIAxDUa49TsAAAAAAAAAAMY0GOHW7wAAAAAAAAAAGNNghFu/AwAAAAAAAABgTIMRbv0OAAAAAAAAAIAxDUa49TsAAAAAAAAAAMY0GOHW7wAAAAAAAAAAGNNghFu/AwAAAAAAAABgTIMRbv0OAAAAAAAAAIAxDUa49TsAAAAAAAAAAMY0GOHW7wAAAAAAAAAAGNNghFu/AwAAAAAAAABgTIMRbv0OAAAAAAAAAIAxDUa49TsAAAAAAAAAAMY0GOHW7wAAAAAAAAAAGNNghFu/AwAAAAAAAABgTIMRbv0OAAAAAAAAAIAxDUa49TsAAAAAAAAAAMY0GOHW7wAAAAAAAAAAGNNghFu/AwAAAAAAAABgTIMRbv0OAAAAAAAAAIAxDUa49TsAAAAAAAAAAMY0GOHW7wAAAAAAAAAAGNNghFu/AwAAAAAAAABgTIMRbv0OAAAAAAAAAIAxDUa49TsAAAAAAAAAAMY0GOHW7wAAAAAAAAAAGNNghFu/AwAAAAAAAABgTIMRbv0OAAAAAAAAAIAxDUa49TsAAAAAAAAAAMY0GOHW7wAAAAAAAAAAGNNghFu/AwAAAAAAAABgTIMRbv0OAAAAAAAAAIAxDUa49TsAAAAAAAAAAMY0GOHW7wAAAAAAAAAAGNNghFu/AwAAAAAAAABgTIMRbv0OAAAAAAAAAIAxDUa49TsAAAAAAAAAAMY0GOHW7wAAAAAAAAAAGNNghFu/AwAAAAAAAABgTIMRbv0OAAAAAAAAAIAxDUa49TsAAAAAAAAAAMY0GOHW7wAAAAAAAAAAGNNghFu/AwAAAAAAAABgTIMRbv0OAAAAAAAAAIAxDUa49TsAAAAAAAAAAMY0GOHW7wAAAAAAAAAAGNNghFu/AwAAAAAAAABgTIMRbv0OAAAAAAAAAIAxDUa49TsAAAAAAAAAAMY0GOHW7wAAAAAAAAAAGNNghFu/AwAAAAAAAABgTIMRbv0OAAAAAAAAAIAxDUa49TsAAAAAAAAAAMY0GOHW7wAAAAAAAAAAGNNghFu/AwAAAAAAAABgTIMRbv0OAAAAAAAAAIAxDUa49TsAAAAAAAAAAMY0GOHW7wAAAAAAAAAAGNNghFu/AwAAAAAAAABgTIMRbv0OAAAAAAAAAIAxDUa49TsAAAAAAAAAAMY0GOHW7wAAAAAAAAAAGNNghFu/AwAAAAAAAABgTIMRbv0OAAAAAAAAAIAxDUa49TsAAAAAAAAAAMY0GOHW7wAAAAAAAAAAGNNghFu/AwAAAAAAAABgTIMRbv0OAAAAAAAAAIAxDUa49TsAAAAAAAAAAMY0GOHW7wAAAAAAAAAAGNNghFu/AwAAAAAAAABgTIMRbv0OAAAAAAAAAIAxDUa49TsAAAAAAAAAAMY0GOHW7wAAAAAAAAAAGNNghFu/AwAAAAAAAABgTIMRbv0OAAAAAAAAAIAxDUa49TsAAAAAAAAAAMY0GOHW7wAAAAAAAAAAGNNghFu/AwAAAAAAAABgTIMRbv0OAAAAAAAAAIAxDUa49TsAAAAAAAAAAMY0GOHW7wAAAAAAAAAAGNNghFu/AwAAAAAAAABgTIMRbv0OAAAAAAAAAIAxDUa49TsAAAAAAAAAAMY0GOHW7wAAAAAAAAAAGNNghFu/AwAAAAAAAABgTIMRbv0OAAAAAAAAAIAxDUa49TsAAAAAAAAAAMY0GOHW7wAAAAAAAAAAGNNghFu/AwAAAAAAAABgTIMRbv0OAAAAAAAAAIAxDUa49TsAAAAAAAAAAMY0GOHW7wAAAAAAAAAAGNNghFu/AwAAAAAAAABgTIMRbv0OAAAAAAAAAIAxDUa49TsAAAAAAAAAAMY0GOHW7wAAAAAAAAAAGNNghFu/AwAAAAAAAABgTIMRbv0OAAAAAAAAAIAxDUa49TsAAAAAAAAAAMY0GOHW7wAAAAAAAAAAGNNghFu/AwAAAAAAAABgTIMRbv0OAAAAAAAAAIAxDUa49TsAAAAAAAAAAMY0GOHW7wAAAAAAAAAAGNNghFu/AwAAAAAAAABgTIMRbv0OAAAAAAAAAIAxDUa49TsAAAAAAAAAAMY0GOHW7wAAAAAAAAAAGNNghFu/AwAAAAAAAABgTIMRbv0OAAAAAAAAAIAxDUa49TsAAAAAAAAAAMY0GOHW7wAAAAAAAAAAGNNghFu/AwAAAAAAAABgTIMRbv0OAAAAAAAAAIAxDUa49TsAAAAAAAAAAMY0GOHW7wAAAAAAAAAAGNNghFu/AwAAAAAAAABgTIMRbv0OAAAAAAAAAIAxDUa49TsAAAAAAAAAAMY0GOHW7wAAAAAAAAAAGNNghFu/AwAAAAAAAABgTIMRbv0OAAAAAAAAAIAxDUa49TsAAAAAAAAAAMY0GOHW7wAAAAAAAAAAGNNghFu/AwAAAAAAAABgTIMRbv0OAAAAAAAAAIAxDUa49TsAAAAAAAAAAMY0GOHW7wAAAAAAAAAAGNNghFu/AwAAAAAAAABgTIMRbv0OAAAAAAAAAIAxDUa49TsAAAAAAAAAAMY0GOHW7wAAAAAAAAAAGNNghFu/AwAAAAAAAABgTIMRbv0OAAAAAAAAAIAxDUa49TsAAAAAAAAAAMY0GOHW7wAAAAAAAAAAGNNghFu/AwAAAAAAAABgTIMRbv0OAAAAAAAAAIAxDUa49TsAAAAAAAAAAMY0GOHW7wAAAAAAAAAAGNNghFu/AwAAAAAAAABgTIMRbv0OAAAAAAAAAIAxDUa49TsAAAAAAAAAAMY0GOHW7wAAAAAAAAAAGNNghFu/AwAAAAAAAABgTIMRbv0OAAAAAAAAAIAxDUa49TsAAAAAAAAAAMY0GOHW7wAAAAAAAAAAGNNghFu/AwAAAAAAAABgTIMRbv0OAAAAAAAAAIAxDUa49TsAAAAAAAAAAMY0GPll7/5ZLcnOewE35wPoA9xcyY3F/QTGuUGxA32AGyhWYFAkLmgyJx4HxsEwoLEZFAzSIJiBxiALGoZJGowcDOaCG7UDBwaD8Vy9fc9q1fxmv7v3v6q9Tul5YNEze6+zq85btWvvqvU7q+hl7QAAAAAAAAAA2JkMjNDL2gEAAAAAAAAAsDMZGKGXtQMAAAAAAAAAYGcyMEIvawcAAAAAAAAAwM5kYIRe1g4AAAAAAAAAgJ3JwAi9rB0AAAAAAAAAADuTgRF6WTsAAAAAAAAAAHYmAyP0snYAAAAAAAAAAOxMBkboZe0AAAAAAAAAANiZDIzQy9oBAAAAAAAAALAzGRihl7UDAAAAAAAAAGBnMjBCL2sHAAAAAAAAAMDOZGCEXtYOAAAAAAAAAICdycAIvawdAAAAAAAAAAA7k4ERelk7AAAAAAAAAAB2JgMj9LJ2AAAAAAAAAADsTAZG6GXtAAAAAAAAAADYmQyM0MvaAQAAAAAAAACwMxkYoZe1AwAAAAAAAABgZzIwQi9rBwAAAAAAAADAzmRghF7WDgAAAAAAAACAncnACL2sHQAAAAAAAAAAO5OBEXpZOwAAAAAAAAAAdiYDI/SydgAAAAAAAAAA7EwGRuhl7QAAAAAAAAAA2JkMjNDL2gEAAAAAAAAAsDMZGKGXtQMAAAAAAAAAYGcyMEIvawcAAAAAAAAAwM5kYIRe1g4AAAAAAAAAgJ3JwAi9rB0AAAAAAAAAADuTgRF6WTsAAAAAAAAAAHYmAyP0snYAAAAAAAAAAOxMBkboZe0AAAAAAAAAANiZDIzQy9oBAAAAAAAAALAzGRihl7UDAAAAAAAAAGBnMjBCL2sHAAAAAAAAAMDOZGCEXtYOAAAAAAAAAICdycAIvawdAAAAAAAAAAA7k4ERelk7AAAAAAAAAAB2JgMj9LJ2AAAAAAAAAADsTAZG6GXtAAAAAAAAAADYmQyM0MvaAQAAAAAAAACwMxkYoZe1AwAAAAAAAABgZzIwQi9rBwAAAAAAAADAzmRghF7WDgAAAAAAAACAncnACL2sHQAAAAAAAAAAO5OBEXpZOwAAAAAAAAAAdiYDI/SydgAAAAAAAAAA7EwGRuhl7QAAAAAAAAAA2JkMjNDL2gEAAAAAAAAAsDMZGKGXtQMAAAAAAAAAYGcyMEIvawcAAAAAAAAAwM5kYIRe1g4AAAAAAAAAgJ3JwAi9rB0AAAAAAAAAADuTgRF6WTsAAAAAAAAAAHYmAyP0snYAAAAAAAAAAOxMBkboZe0AAAAAAAAAANiZDIzQy9oBAAAAAAAAALAzGRihl7UDAAAAAAAAAGBnMjBCL2sHAAAAAAAAAMDOZGCEXtYOAAAAAAAAAICdycAIvawdAAAAAAAAAAA7k4ERelk7AAAAAAAAAAB2JgMj9LJ2AAAAAAAAAADsTAZG6GXtAAAAAAAAAADYmQyM0MvaAQAAAAAAAACwMxkYoZe1AwAAAAAAAABgZzIwQi9rBwAAAAAAAADAzmRghF7WDgAAAAAAAACAncnACL2sHQAAAAAAAAAAO5OBEXpZOwAAAAAAAAAAdiYDI/SydgAAAAAAAAAA7EwGRuhl7QAAAAAAAAAA2JkMjNDL2gEAAAAAAAAAsDMZGKGXtQMAAAAAAAAAYGcyMEIvawcAAAAAAAAAwM5kYIRe1g4AAAAAAAAAgJ3JwAi9rB0AAAAAAAAAADuTgRF6WTsAAAAAAAAAAHYmAyP0snYAAAAAAAAAAOxMBkboZe0AAAAAAAAAANiZDIzQy9oBAAAAAAAAALAzGRihl7UDAAAAAAAAAGBnMjBCL2sHAAAAAAAAAMDOZGCEXtYOAAAAAAAAAICdycAIvawdAAAAAAAAAAA7k4ERelk7AAAAAAAAAAB2JgMj9LJ2AAAAAAAAAADsTAZG6GXtAAAAAAAAAADYmQyM0MvaAQAAAAAAAACwMxkYoZe1AwAAAAAAAABgZzIwQi9rBwAAAAAAAADAzmRghF7WDgAAAAAAAACAncnACL2sHQAAAAAAAAAAO5OBEXpZOwAAAAAAAAAAdiYDI/SydgAAAAAAAAAA7EwGRuhl7QAAAAAAAAAA2JkMjNDL2gEAAAAAAAAAsDMZGKGXtQMAAAAAAAAAYGcyMEIvawcAAAAAAAAAwM5kYIRe1g4AAAAAAAAAgJ3JwAi9rB0AAAAAAAAAADuTgRF6WTsAAAAAAAAAAHYmAyP0snYAAAAAAAAAAOxMBkboZe0AAAAAAAAAANiZDIzQy9oBAAAAAAAAALAzGRihl7UDAAAAAAAAAGBnMjBCL2sHAAAAAAAAAMDOZGCEXtYOAAAAAAAAAICdycAIvawdAAAAAAAAAAA7k4ERelk7AAAAAAAAAAB2JgMj9LJ2AAAAAAAAAADsTAZG6GXtAAAAAAAAAADYmQyM0MvaAQAAAAAAAACwMxkYoZe1AwAAAAAAAABgZzIwQi9rBwAAAAAAAADAzmRghF7WDgAAAAAAAACAncnACL2sHQAAAAAAAAAAO5OBEXpZOwAAAAAAAAAAdiYDI/SydgAAAAAAAAAA7EwGRuhl7QAAAAAAAAAA2JkMjNDL2gEAAAAAAAAAsDMZGKGXtQMAAAAAAAAAYGcyMEIvawcAAAAAAAAAwM5kYIRe1g4AAAAAAAAAgJ3JwAi9rB0AAAAAAAAAADuTgRF6WTsAAAAAAAAAAHYmAyP0snYAAAAAAAAAAOxMBkboZe0AAAAAAAAAANiZDIzQy9oBAAAAAAAAALAzGRihl7UDAAAAAAAAAGBnMjBCL2sHAAAAAAAAAMDOZGCEXtYOAAAAAAAAAICdycAIvawdAAAAAAAAAAA7k4ERelk7AAAAAAAAAAB2JgMj9LJ2AAAAAAAAAADsTAZG6GXtAAAAAAAAAADYmQyM0MvaAQAAAAAAAACwMxkYoZe1AwAAAAAAAABgZzIwQi9rBwAAAAAAAADAzmRghF7WDgAAAAAAAACAncnACL2sHQAAAAAAAAAAO5OBEXpZOwAAAAAAAAAAdiYDI/SydgAAAAAAAAAA7EwGRuhl7QAAAAAAAAAA2JkMjNDL2gEAAAAAAAAAsDMZGKGXtQMAAAAAAAAAYGcyMEIvawcAAAAAAAAAwM5kYIRe1g4AAAAAAAAAgJ3JwAi9rB0AAAAAAAAAADuTgRF6WTsAAAAAAAAAAHYmAyP0snYAAAAAAAAAAOxMBkboZe0AAAAAAAAAANiZDIzQy9oBAAAAAAAAALAzGRihl7UDAAAAAAAAAGBnMjBCL2sHAAAAAAAAAMDOZGCEXtYOAAAAAAAAAICdycAIvawdAAAAAAAAAAA7k4ERelk7AAAAAAAAAAB2JgMj9LJ2AAAAAAAAAADsTAZG6GXtAAAAAAAAAADYmQyM0MvaAQAAAAAAAACwMxkYoZe1AwAAAAAAAABgZzIwQi9rBwAAAAAAAADAzmRghF7WDgAAAAAAAACAncnACL2sHQAAAAAAAAAAO5OBEXpZOwAAAAAAAAAAdiYDI/SydgAAAAAAAAAA7EwGRuhl7QAAAAAAAAAA2JkMjNDL2gEAAAAAAAAAsDMZGKGXtQMAAAAAAAAAYGcyMEIvawcAAAAAAAAAwM5kYIRe1g4AAAAAAAAAgJ3JwAi9rB0AAAAAAAAAADuTgRF6WTsAAAAAAAAAAHYmAyP0snYAAAAAAAAAAOxMBkboZe0AAAAAAAAAANiZDIzQy9oBAAAAAAAAALAzGRihl7UDAAAAAAAAAGBnMjBCL2sHAAAAAAAAAMDOZGCEXtYOAAAAAAAAAICdycAIvawdAAAAAAAAAAA7k4ERelk7AAAAAAAAAAB2JgMj9LJ2AAAAAAAAAADsTAZG6GXtAAAAAAAAAADYmQyM0MvaAQAAAAAAAACwMxkYoZe1AwAAAAAAAABgZzIwQi9rBwAAAAAAAADAzmRghF7WDgAAAAAAAACAncnACL2sHQAAAAAAAAAAO5OBEXpZOwAAAAAAAAAAdiYDI/SydgAAAAAAAAAA7EwGRuhl7QAAAAAAAAAA2JkMjNDL2gEAAAAAAAAAsDMZGKGXtQMAAAAAAAAAYGcyMEIvawcAAAAAAAAAwM5kYIRe1g4AAAAAAAAAgJ3JwAi9rB0AAAAAAAAAADuTgRF6WTsAAAAAAAAAAHYmAyP0snYAAAAAe/H69evv/Pa3v/2TL7/88ge//vWv/0LTNE3TNE3TNE3TtPPbixcvfljn11999dX38tybJyQDI/SydgAAAABP2atXr75bF/k+/vjj3/zt3/7t15qmaZqmaZqmaZqm3bZ99NFH/1Qhm/ojljwvZ2IZGKGXtQMAAAB4iuqv4z755JNP8wKfpmmapmmapmmapmnrtA8//PB3z58//6lQzRORgRF6WTsAAACAp6Qu2NVfw+UFPU3TNE3TNE3TNE3Ttmk1U41bQD0BGRihl7UDAAAAeErczknTNE3TNE3TNE3T7t9qlhqBmsllYIRe1g4AAADgqfjss8/+Oi/eaZqmaZqmaZqmaZp2n1aBmlevXn03z9+ZRAZG6GXtAAAAAJ6Cuid7XrQ71Grmmupbt4LSNE3TNE3TNE3TNO2y9umnn/7sk08++TTPu7NVvzyHZxIZGKGXtQMAAACY3evXr7+TF+uWrf4S7sWLFz/013AAAABwW3Wu/a6ZYl++fPn9/DkmkIERelk7AAAAgNnVX8TlhbrR6i/gKmyTPwMAAADczpdffvmDPCcfrWaJzf5MIAMj9LJ2AAAAADOroEzNPJMX6lysAwAAgG0d+2MXf+gyoQyM0MvaAQAAAMzst7/97Z/kBbrR3NYJAAAAtvXRRx/9U56fV6uZa7Ivd5aBEXpZOwAAAICZdX/1Vvdrz74AAADAup4/f/7TPEevVrdhzr7cWQZG6GXtAAAAAGbWhWlevHjxw+wLAAAArOurr776Xp6jj5Z9ubMMjNDL2gEAAADM7JNPPvk0L85Vq9s/ZV8AAABgfd2tnl6/fv2d7MsdZWCEXtYOAAAAYGZdmObVq1ffzb4AAADA+rpzdX/4MpkMjNDL2gEAAADMrLtAl/0AAACAbXTn6sI0k8nACL2sHQAAAMDMugt02Q8AAADYRneuLkwzmQyM0MvaAQAAAMysu0CX/QAAAIBtdOfqwjSTycAIvawdAAAAwMy6C3TZDwAAANhGd64uTDOZDIzQy9oBAAAAzKy7QJf9AAAAgG105+rCNJPJwAi9rB0AAADAzLoLdNkPAAAA2EZ3ri5MM5kMjNDL2gEAAADMrLtAl/0AbuHVq1ff/fWvf/0Xn3766c8++uijf6rjTf1b/1+P1/P5M1v48ssvf/D8+fOfLo+J9d/1WD2X/begVqdTq8scqtuHH374u3vXbelQDT/++OPfqOHpZq/hWmqwubZB/d61TcZx4bPPPvvrFy9e/PD169ffyZ9ZWy2zll3rUNtgeVyodb3XALlane9QzWo971mzdOj4NMNnY5l9+w73Pn525+qz1IdHGRihl7UDAAAAmFl3gS77AVyrBkfyWJOtBqRqcCV/di1fffXV95aDOF2rY+WWg05qdTq1ukzVYwwAH2tV3/zZLVRduu8oy1Z1rnrnz29BDedUg/Q10J2/Z7badi9fvvx+/vxaavB7BBqOtQo6bBXEUKvz1fJqubku2Wr97xl4mPGzcZh5+w6zHD+7dbjnvsUBGRihl7UDAAAAmFl3gS77AVzq1GDBstWxae0BlFMGmpatBp3W/itktTqdWl2mfv/us79raw8WpqrHKSGVZdsysKKG86oanzJIv2xbDNifElhZti3CK2p1vgownPu+qt8nX2dNFQKZ8bNxmHn7DjMdP7vPGmGayWRghF7WDgAAAGBm3QW67AdwqXMHdUarqf/ztW6lBmZyeae0GlxZc0BcrU6nVpc5ZUaFQ63qna+1hqpDLvvUttWAqxrOqcIA54ZDRlsz8FAzf+TyTml1XFhr5iq1Ol/V7NyAxWhbzv7Sndu9q9VxLV/r1mbevsNsx89uewrTTCYDI/SydgAAAAAz6y7QZT+AS5w7S0e2NQYmrhkQq7bWgLhanU6tLnNp2Ge0tf7yfunSkFS1qv/asyuo4bzOnfEi2xqD0xUAuOa4UN/T8zVvQa3Od2mIbrQtApOXhlVGWzP0M/v2HWY7fnbn6mu8B7lCBkboZe0AAAAAZtZdoMt+AOeqgZM8tpzbamAiX/daNTNJLufcdusBJ7U6nVpd7pqBzNHWnB3g2oHgamvOPFTUcE7XzCYxWs3Ukq97rWsDGNVufRs4tTrftSG6amsHJq8Nq1RbcwaYmbfvMOPxsztXF6aZTAZG6GXtAAAAAGbWXaDLfgDnqkGPPLaM9sUXX3z9X//1X2+uqf7nf/7n1//4j//4rT6j3XrAoLu1xd///d9//W//9m9v1um///u/v/7Xf/3XN49lv2q3/gtptTqdWl2mft9c3mhVp6pXqfpVHbPPaGsGfrrvJFWvqlvVr1Q9uxquEZQa1HBex2ar+ud//ue3x4X/+I//+Przzz//Vp/Rbj17SL7+aL/4xS++/vd///c361Tb5F/+5V++1We0W99+R63Od2wmn1qfUbNaz1rf7DParWctWToW+Knj0Tg+veuzcY2Z20ouZ7QZtu8w4/GzW6dbf4fhSm/2DE6StQMAAACYWXeBLvsBnKsbfKpBnUO6Qbtb3halBrLy9UcbA01LNcCT/UbL176GWp1OrS7T/cV9DWSOAcKlLgxy67+6X+pmVahBzFR1zX6jrTWzghrOq5v14tBxobZVF3i45cwXx2aAOXRcqG2U/ardehYYtTpfd75UwY9UwZouaLFmAKILSVVw5pAtPhuH2bfvMOPxs9v31tyXuEDuIPSydgAAAAAz6y7QZT+Ac3XHl/pr90PqL32zb7Vb/iVyN7NEN9hUuoHEW/5VvlqdTq0u092G6tAgYekGCtcazOxu31WD0p0urHLLQf4lNZxXNzPUoYH60g3W3zLo1M2idSi0MnQhjFsOzqvV+XIZox0K0ZWa4Sf7VlsjqDJ0n41j1pfUhTrXmCFt9u1bZj1+dttVmGYyuXPQy9oBAAAAzKy7QJf9AM7V/YXvuB1CqjBE9q12y4GdbmaJly9f5uq81d0O4ZYDGWp1OrW6TPd53w201iBx9h0tX/sWukBSzZ7Q2XrAWg3nles/Whd22CJI0M0UUjXvdLOF3PK4kK89mlr1chmjdbpbFdXMavnat9Idn7qgaffZ+PHHH/8mX/tas2/fMuvxs9uua9WBC+XOQS9rBwAAADCz7gJd9gM4V3d8qZlCDukGJW45+NQNltQsIYccGwyvW/vk619KrU6nVpfpBjO7wE83o88tB9BTLmu0LijVze6z1iCjGs7r3ONCbbPsW+2Wg+DnHhdqG2Xf0fK1r6FW5+tCnN1sPl1Y8pYzlqTu9l3dzFld4OeWMw4Ns2/fIZc12j2Pn9379ZbL4AZy56CXtQMAAACYWXeBLvsBnKsbeK4p83MAqht0rnbrwad8/dFyQLwCD91fRt/6Ni1qdTq1uszv1+P7ubzRchC96tjdYuOWIaRUMyLk8qpVvXLWjG6Av9pagSQ1nFfVNH+HauceF2ob52tfqmqYr79YzjfW6dhx4dYzhajV+bqgSq1HBi26kEq1tW7jV7oZ0mq75uw03aw01ep18rWvNfv2HWY8fnbn6sI0k/nG3sFRWTsAAACAmXUX6LIfwLmODTxXq7/crkGnbtBktFevXn03X/sa3WBJtfor4xogqdYNhFe79V9uq9Xp1Ooy9fvm8pat6lV1++KLL7713LLdcgA91e+fyxut6lb1q5mGutkAqq052KqG86pwXP4ey1bb5JTjwi0HwUsF5HIZo9U2qG3xruPCrcNXanW+LsRZrdanavau91W1fN1b6mZ/Ge3Uz8a1Qhozb99hxuNnd66+1nbiQhkYoZe1AwAAAJhZd4Eu+wFc4ljA4JRWfw2er3mtd4UxTmlr/HW5Wp1OrS7Tza5waqu633oAfal+/1zmue3WMw4lNZxT1fTYYP0pbY0wWzdbyKmtbi906+OCWp2vatbd6unUdsvbYnW687pT25q3oJt5+w4zHj+7bSpMM5kMjNDL2gEAAADMrLtAl/0ALnHNwEQNnKw16HzNgPhaA2JqdTq1usy1g+hrD2SWawZc1whJJTWc1zXHhdqmMx4X1rjlTlGr810TmFwzpLJUs2ddGvpZ87NxmHn7DrMdP7tzdWGayWRghF7WDgAAAGBm3QW67AdwqUsHJtYcKLh0QHztATG1Op1aXeZdtwLp2lYDmaX7bnKsrTnAn9RwXsdux3OsrRlyunRWkzUG5pfU6nzHbgPUtfp9bn1bwWPedRuvrq15+7lh9u07zHT87NZlze8yXCADI/SydgAAAAAz6y7QZT+Aa9QgzakDKHUblDUH64Ya9Djnr6S3mDmkqNXp1OoyVYdTb5VV9d1ikDWdM9Bf9V5jEPMYNZyX48Lp1Op8FYo7tWZ1nrVlkGaooMWpwc7qt2UwY/btO8xy/OzO1bfcZpwgAyP0snYAAAAAM+su0GU/gGvVQEP9VXc3CFUDOvcYNKnBxGOD4jVIssUA4pJanU6tLld16epWj1dd1xogPEXVp/ueUq3qe4+QypIazmkcF/L3He2ex4VjIYd7HBfU6nwVkDkWCKn1rhli8ue2VNv1+fPnPz12fKrteq/j08zbd5jh+NktX5hmMhkYoZe1AwAAAJhZd4Eu+wHcUg1E1QBEDeTUv/f4y+1DanCi/uq82iwDFWp1OrW6TA2m1nrNVrelGtSswWk1vNzsNVzL8rhQv/e9wgNpHBdqm9w7NDCo1fnG+2q2mi3N+tk4zLx9h3sdP7tz9S3XgRNkYIRe1g4AAABgZt0FuuwHAAAAbKM7VxemmUwGRuhl7QAAAABm1l2gy34AAADANrpzdWGayWRghF7WDgAAAGBm3QW67AcAAABsoztXF6aZTAZG6GXtAAAAAGbWXaDLfgAAAMA2unN1YZrJZGCEXtYOAAAAYGbdBbrsBwAAAGyjO1cXpplMBkboZe0AAAAAZtZdoMt+AAAAwDa6c3VhmslkYIRe1g4AAABgZt0FuuwHAAAAbKM7VxemmUwGRuhl7QAAAABm1l2gy34AAADANrpzdWGayWRghF7WDgAAAGBm3QW67AcAAABsoztXF6aZTAZG6GXtAAAAAGbWXaDLfgAAAMA2unN1YZrJZGCEXtYOAAAAYGbdBbrsBwAAAGyjO1cXpplMBkboZe0AAAAAZtZdoMt+AAAAwDa6c3VhmslkYIRe1g4AAABgZt0FuuwHAAAAbKM7VxemmUwGRuhl7QAAAABm1l2gy34AAADANrpzdWGayWRghF7WDgAAAGBm3QW67AcAAABsoztXF6aZTAZG6GXtAAAAAGbWXaDLfgAAAMA2unN1YZrJZGCEXtYOAAAAYGbdBbrsBwAAAGyjO1cXpplMBkboZe0AAAAAZtZdoMt+AAAAwDa6c3VhmslkYIRe1g4AAABgZt0FuuwHAAAAbKM7VxemmUwGRuhl7QAAAABm1l2gy34AAADANrpzdWGayWRghF7WDgAAAGBm3QW67AcAAABsoztXF6aZTAZG6GXtAAAAAGbWXaDLfgAAAMA2unN1YZrJZGCEXtYOAAAAYGbdBbrsBwAAAGyjO1cXpplMBkboZe0AAAAAZtZdoMt+AAAAwDa6c3VhmslkYIRe1g4AAABgZt0FuuwHAAAAbKM7VxemmUwGRuhl7QAAAABm1l2gy34AAADANrpzdWGayWRghF7WDgAAAGBm3QW67AcAAABsoztXF6aZTAZG6GXtAAAAAGbWXaDLfgAAAMA2unN1YZrJZGCEXtYOAAAAYGbdBbrsBwAAAGyjO1cXpplMBkboZe0AAAAAZtZdoMt+AAAAwDa6c3VhmslkYIRe1g4AAABgZt0FuuwHAAAAbKM7VxemmUwGRuhl7QAAAABm1l2gy34AAADANrpzdWGayWRghF7WDgAAAGBm3QW67AcAAABsoztXF6aZTAZG6GXtAAAAAGbWXaDLfgAAAMA2unN1YZrJZGCEXtYOAAAAYGbdBbrsBwAAAGyjO1cXpplMBkboZe0AAAAAZtZdoMt+AAAAwDa6c3VhmslkYIRe1g4AAABgZt0FuuwHAAAAbKM7VxemmUwGRuhl7QAAAABm1l2gy34AAADANrpzdWGayWRghF7WDgAAAGBm3QW67AcAAABsoztXF6aZTAZG6GXtAAAAAGbWXaDLfgAAAMA2unN1YZrJZGCEXtYOAAAAYGbdBbrsBwAAAGyjO1cXpplMBkboZe0AAAAAZtZdoMt+AAAAwDa6c3VhmslkYIRe1g4AAABgZt0FuuwHAAAAbKM7VxemmUwGRuhl7QAAAABm1l2gy34AAADANrpzdWGayWRghF7WDgAAAGBm3QW67AcAAABsoztXF6aZTAZG6GXtAAAAAGbWXaDLfgAAAMA2unN1YZrJZGCEXtYOAAAAYGbdBbrsBwAAAGyjO1cXpplMBkboZe0AAAAAZtZdoMt+AAAAwDa6c3VhmslkYIRe1g4AAABgZt0FuuwHAAAAbKM7VxemmUwGRuhl7QAAAABm1l2gy34AAADANrpzdWGayWRghF7WDgAAAGBm3QW67AcAAABsoztXF6aZTAZG6GXtAAAAAGbWXaDLfgAAAMA2unN1YZrJZGCEXtYOAAAAYGbdBbrsBwAAAGyjO1cXpplMBkboZe0AAAAAZtZdoMt+AAAAwDa6c3VhmslkYIRe1g4AAABgZt0FuuwHAAAAbKM7VxemmUwGRuhl7QAAAABm1l2gy34AAADANrpzdWGayWRghF7WDgAAAGBm3QW67AcAAABsoztXF6aZTAZG6GXtAAAAAGbWXaDLfgAAAMA2unN1YZrJZGCEXtYOAAAAYGbdBbrsBwAAAGyjO1cXpplMBkboZe0AAAAAZtZdoMt+AAAAwDa6c3VhmslkYIRe1g4AAABgZt0FuuwHAAAAbKM7VxemmUwGRuhl7QAAAABm1l2gy34AAADANrpzdWGayWRghF7WDgAAAGBm3QW67AfA//fixYv/mY8BAMAtdefqwjSTycAIvawdAAAAwMy6C3TZD2BLH3zwwY/+8i//8mezBFdevnz5P/7u7/7uf//kJz/5otYrn7/Cwz/8wz/8r1l+T5hRvT/qPZiPA/v3y1/+8s/q8zcf5+mq43l99/n9fz7kc3xTd64uTDOZDIzQy9oBAAAAzKy7QJf9ALZUgZUf/ehHXz8OttzN559//qfvv//+X9W6jHbLME39ft1rjufuPIj4UDWodRjbZKzv3/zN3/yfe2+fUutQ6/Lzn//8z5eBi+W2u8O6vglJjZZPLo265uOzqX1gi/fkCK699957v1q+75attmsNsD/baCC2wjwj4FeBulqHH//4x/93vA8e36ObrMsBD7X8Wo/a58eDtc71WK1nterzFANJ4zhYv8PjNp/JQx138rFaz3Hsqf04j01bOhLWfKh9erzPar+u/2/63tU9jpHj/ZPvm/F5Mz4H1z4ehvxcaY85Wx2vLzX7+s2kO1cXpplMBkboZe0AAAAAZtZdoMt+AFu6Z5hmOQvNcgC/Bh1vPYA/BopnDdNkkOhQqz73GCiuwc5DgYvaRqN22WqwOF/n1mrgvAb+l8ut9ewGqe8xUHyJLQY/q0ZZu2Ot6vrshu/HQ8bA+btarfeBYMWqDu1rj8eSh3x8tGXg5inI93L9fvc43qSq46jx4uGHrPeybb1/lFGzfPzYfr3VZ86YneRdbRznl489W+l9X+u0DI4ua1LP5eNdfW9tub+NVt9RuuPxFsfra9xj/erzpZY3Zjoa3xW6z+ZZdOfqwjSTycAIvawdAAAAwMy6C3TZD2BL9wjTHJqFZgyUrTXYUr9fNxg3nttqYDNV8GTUoOpS61HrdGimmsdQw6aW61cDwyP8VP+O7ThmDqj1HQORaw7E136yrEmGsg7NrCFM89bbAEjVrvazHDQfg6HL7bnmvjf2sVpW7VMVhqhtOLbZmPGo+o31qcfyddYyllnrU+sw9rURPhjrV7Uc4Yn6PfJ1ZjaOg/U7LY85j3VeJVBxiuXxZjxW+8fYHvXftb8ua7/mvtoZ67N8rNZp1LHeS7Wey9l0lr/TmsYx5ZK21nFobMNqVY/xXqr32nI7juPQ2A/W+o7w6G1Ia3yuLIOkh74jbHC8vsqG6/dmBqYMR2cbMzNV/3yBe+vO1YVpJpOBEXpZOwAAAICZdRfosh/AlrYK03Sz0NQg2hhIPzRQdSuzhmmWg62HAiBDPTf6bb2eYzBxGY7JgM2y/xgkXXM9xzJyBpzalmN9c2aQe4Rpxn5/Tlv7PTn292qnDEwvB73XCkiN48Kh98AYWB/rupy14pT1v9aoV852MvazQ8GN8Vw+PrM8Ri5n46l/73Rrojfhhlr+ctljfzm0P473z9bruqzdUO/nerz+XT5exn59aJ+/teV7uNYxjzmjjbouHztU41sYgaLlcW65nvm5Mj4D8/FbGu+BDMLVvjTWN7dX1Sh/j7XM+Hny6GEZOqpW79la9mjL56o9HjenCtR05+rCNJPJwAi9rB0AAADAzLoLdNkPYEtbDLTkLDQ1YFeDZmOQboswSw4UH3puzeV3xoBqDtQfMgYaa5Aqn1vLCC4cCgyM7Zn7zpg15lCtbyUDFuGh9rEcgL9HmGYZXDm3ZV1vpfbzev1z9vdRuxxIvoWxj3WzdIzA2fI9suXsLyM4lqGCY3Uc79W1tuEammPkm9kmlvtlbaf6ncetW7IutzTWKQMUx7b92F8ObZc1Hajd28++ZwdCA029V7MMqnQzg2x5jKzj86H3/FjHA9vvTbDq0GfRrYz3dHOcexsYWQY1x89s8V6f8fOkjBqcspzlfnhgG99Vd64uTDOZDIzQy9oBAAAAzKy7QJf9ALa0RZhmDJzUsg4tZ4swy7GByy2W31nMYPGtgc0D3t6Cov47n1zDCDocqtuYtSK36QjT5KwxtzQG+HP2maHWodZvGajZcqB4GLUY+9cpbe33ZC3j3O1zaBD5ht7s14f2sTLCEctARReyWEMXphmPH6rjeG6tbbiGY8fI+t3rdxrv+Wy1T+XP3MJ4/zwGCN8e8yqE0YUqzgko3tKh2i3CNN8yjq1r1e6Qqud4L1dN8/285TGyC9OMdch1O/ZZdCsj6NGEacqbW+QtP1fG8XSL9/pyVq56P+Znx6G29udJGcs4dCw8ZLxH19yWl+jO1YVpJpOBEXpZOwAAAICZdRfosh/ApWqwJAdS3tXGbR3WHGgZgz/VaiBvOStN2SLMcmygeIvlN87+S/tDt8ZYWxf4qQHHx5p94/ERJFiznmOQvZudoozbgtTAZ9Vry4HipTFweGo9qt+a23js76cuY6zPoX3gVsZ+nYGVcmBw/e0MEVsEJprjw5vZj+rxQ+/fMTNSPj6zY8fIpdoOtU9XvxGuOXXfvsShgfpuZqpleO2UffuWDtVuHIMOhTOOPbe25Xv6MZD25n295TFyvOdzG9Z2rvXIx0fQ5dTAxiVOCewsg5rjM3DL/W0s79hn39IW61evn4G3d3gTStpqXztVd64uTDOZDIzQy9oBAAAAzKy7QJf9AC61HCA7t6050FIDVMvgzmg1GFQDs81g9U0dGyjeYvmHXLLcLQbG0lhmDX4dW9fazmOQu1oOht7a2J/q364ey1tK3HHw7m3w4pSabLGNRy0O3bKn1rH+u2q3PKYcCo3cyggW1PrUPlTHhVr2CM0sZ7BY7mNr1mhpLG+s3/j/EQio40r9DlWzsc5bzJpzS8eOke9yKAR1K2O9Rv3HjBzLMFM9Nup+r9rXcut9VfWrVvvG8ti57Fv7yXgPbrUPp+UsNVXL+v8twzTLsOM7AjIPy+PQ2gG6ZU26bTPWffTbejseCBi2tvg8OTfcOD6Xl8f1GXTn6sI0k8nACL2sHQAAAMDMugt02Q/gUjXAMwbyzm2nDPLfQg3+jAHo0baY3WA5IHtuW2u9nkqYpgbKx+DdscGv5YDnFrMt1L40BjKPDSrm7Wny+S2MgepTBvm32MZjdoXc17v2GKQ5ddaBS7ydbeZQWw7SnjvTzy3Utsgw4FinfLxa1fbYPjmja8I0a1sGPd7V3hHMWE2uR7ZDfU8NH6xpzCRWbePA4cMymJZPDstA5CnHz2st97Vjx5j6jFseQ9c8XqfxmXzK7DRbfJ6Mfajq8a5gXT0/6rbF9jxHd64uTDOZDIzQy9oBAAAAzKy7QJf9AP4YjNlqckC/BojWCGII01yvlnlsXeu5ChZsPUBc+8spYbAR5MrHZ1Pvjcftu2Z4pTxU7aomhwIhI/yzZSikfvfaf8ZA8eOx4Bt1qNq8a8B2JW9myBizaY0HxzpXGGit49cWRojgXmGUU4xj0LgV0Gj12KF9ZUtjRqfRxsxOoy37jplglo/dU4bF8vk11bKPHZfr+RNmr7m52p9OeS+P257NtD2Xtvg8WYYzaz8ax5Ha78f7YLxnx35W/WerWXeuLkwzmQyM0MvaAQAAAMysu0CX/QD+2IwZdZYD+TXQkgOQV3pYDnSe09YauK/XXg4+ndLucUsJtnXPwBTwR+thBB/yCXiXCsYcCmUearOFyYbuXF2YZjIZGKGXtQMAAACYWXeBLvsB3MKYQSEfH2oWhdkG6yu0srwlT4VHss+ejDDNJW22bbc0Zh2abR0rtPUUBopnDNPUutR6rRUsA+Dpq5BMfVbUbD3LIPCYqWbGEM3QnasL00wmAyP0snYAAAAAM+su0GU/gCs91CBGDcbXv/lkqVDBCGWcchuDe6j12vq2DmkECNYKNYzQySVt5lDDCAnVeuZz9zRmP8rHZ1N1my1MM+M6AcCtdOfqwjSTycAIvawdAAAAwMy6C3TZD+Aa77///l+NoEzdsiGfH0bg5l6BmgqDjJlCagadtcMhI+BxaLabWodDNRgBgtlCIbMTpvmDSwJTYz1nCq7Ues22TgBwK925ujDNZDIwQi9rBwAAADCz7gJd9gO4xgjInDLoXWGb6lsBnHxuJQ+1rHEbp2w/+clPvjgUarmFY2Ga7vERIKh/8zl6wjR/MGpxSTvlPbwVYRqAp+PxdkoP+Ti97lxdmGYyGRihl7UDAAAAmFl3gS77AVyqBk9qwPuMcMxD9a9wSz6xhhFmGK3CM/lYtUPBlmtNGqZ5qPW6pNXP5outJbfPqW3Fur3dNpe0fK01jffkqMcpbe2ZaWoZWZNT21rrBMBt1Gx/dbzubvXJYd25ujDNZDIwQi9rBwAAADCz7gJd9gO41Jhp5tjtndK4LdTjXzGvZnlbqVq/vK1TLX/Zpwb8l89fq0IA9bqHQjPd4yN0cOt1GcY6XdK2DDXksk9ta9WtXBMIydda29ivT63H+N3W2sbX1G6tdQLgevVdajn736mfO1sYt/fMx2fRnasL00wmAyP0snYAAAAAM+su0GU/gEtdMgg/fuacAM65agBlDOy8ayBlGajJwM01ZgzT1KBXLXfZKtxUyzvU3nvvvV/dI9QwAle1bXKGnENthLrWqlsZM77UoGH9FX6uw6E26pevtYGHmoWpln1KaO2S9/E56n01Blvr/Zh1OtTG+3KtdQLgevV5Xd8l6jNnq7D0qerz49B3rVl05+rCNJPJwAi9rB0AAADAzLoLdNkP4FJjav9zQgxr31KmjPX64IMPfpTPHTKCB/Vz+dyl6ver1zw0kNM9vnaY5lQVfhjbabGum93m6fceKnxR7ZRBuVHrtes2ts+pt7IYNczHtzCCU6es69phmlIhmm6/P2SLdQLgOuMYXcf2+u/6/nDLYPI1hGm4iQyM0MvaAQAAAMysu0CX/QCu8HDOAPmzx5DE2gGDCtGcE44Z/W8ZxniqYZpa9thG9e+7ZvZZywhE1ewu+VzaKkxTxmwzp+xb9wzTnKMGPh8HRFcNTI1ZC06ZlUqYBuDpGGGafPyehGm4iQyM0MvaAQAAAMysu0CX/QCuMcIFpwyQj3DBKQGJa5x7e50RxqjB/nzuUk8tTFPru7yt0+OMJquGK96lgjxVi3f9lfuYhWWL4E+tS63TKcuqkNah7fxH7KFqd8r+XfWt2p0yMxEA9yVMc77uXF2YZjIZGKGXtQMAAACYWXeBLvsBXGPcvmUEMA4FH2pAY9xKqdraA+RjOfl451jw5VLHXrN7/E5hmocxM0+12k6zDYgBAPMSpjlfd64uTDOZDIzQy9oBAAAAzKy7QJf9AK61DNSMVrOcLAM0o50yo8e1xrLy8c6x4Mulxmte0rYK09S2GLd02nK5AMB+CNOcrztXF6aZTAZG6GXtAAAAAGbWXaDLfgC3MG7LksGQ0bpZa9YwlpmPd/7YwjS1HZbbqv577dmCAIB9EqY5X3euLkwzmQyM0MvaAQAAAMysu0CX/QBurYIZP//5z//8888//9N7hDQynHJqm3nQ5VbGraSq1aw0tZ2yDwDAqYRpztedqwvTTCYDI/SydgAAAAAz6y7QZT+AvcmQzKlt5kGXW1jOllO34KqwU4VpKmDzrrbVrEIAwNMyU5imvq/UuizCNA/1fSf73Vt3ri5MM5kMjNDL2gEAAADMrLtAl/0AbqFu85SPlRrUqFs8vf/++3/V9eEPxiBQPn4L19x6aq11AgCetpnCNDUjYn1vqXWq4HDNwvfBBx/8KPvdW3euLkwzmQyM0MvaAQAAAMysu0CX/QCu9FADFTVwkbOXVIgmQxnVt35m2W/nHipE9N577/2qWs0Ek3Ua6rmqT80Ek8/dQi03Z5w5tXXrDAD8cXu8pec03+3q+9T43lnfvZ5NtG5Dd64uTDOZDIzQy9oBAAAAzKy7QJf9AK5Rf+07BiweB1PeqCn1x+P1l8E1M834/wpnLF9jTUdCIA812LJc51urZWeYaLTletV/119Q36M+AAB7U4HuCigf+R54V925ujDNZDIwQi9rBwAAADCzDz/88Hd5cU6YBrilMZV+DVbk9P4jPFODGc8e/yK4+lTfLWanqXWrEM+BYMpDPTZm06lWf7Wc638LtZxRnwodVXin1mlRlzd9lutyYH0BADjPw6xBmiJM80RkYIRe1g4AAABgVq9evfpuXpgTpgFubUyjfyAA8jDCIfH4szEDyxrhlYWHEVqp5S2fWM6QswyxVP9lv1sY6xCDOW9vi1UhnrH8Ws81Z8k5oMJM3wg05a2dqs08EAUA8BQJ0zwRGRihl7UDAAAAmNWLFy9+mBfmqtVFu+wLcKkx80oGY+r/DwVZSvcztzSWUWGWCKi8DfnUTDH1/7UeI/Tyy1/+8s8Wfa/1ZlkVmMknalaaZaCnQknZZ2UPtV51K67lg2Odlu3QNgQAaHwrrMu3CdM8ERkYoZe1AwAAAJjVxx9//Ju8MFetQjbZF+BSI7SSs5eMxx8DK98wZrNZM0wzwjHPYjBnLDvX61j451LjNcftnJZGfR6Xt+mA07j91aF1q8fGrbGqjX53CPsAAHdU3xfO/fwfAeU1v+PthTDNE5GBEXpZOwAAAIAZffXVV9/Li3Kj1e2fsj/ApUYoJGd0GbcvyplPyrjN0poDLfX6h2aEGcvO9X32OIvMGmGaqlE+V3XpnlvbqEHNiJO3lcoajPWsvst+AMC+LYPGGZo+ZHwnXPs73qVmWydhmiciAyP0snYAAAAAs3n9+vV3ullp6vHsD3CNCmPUoEkFNJ49zrAybmHUBTDq8Xr+2YozstTr56wrZSz70KBQ/SX1VmGaY8+tbdQggzQlwzRlBKMO1QwA2Kf6njC+M9S/hwLSpfqN7wr5nXAN9f3uzGDMQ61Tfr+5N2GaJyIDI/SydgAAAAAzORakqfb8+fOf5s8AXGvcCmiEUcZgyoEwy8N4/tCsMbd0aBkj+FPruXz80aYz0xx7bk0ViDn2ex56rm6JVY+fOXAFADxx9b3hwHe7t0GZug3UKYGbWxrrc8p3qFqfsX75/ebehGmeiAyM0MvaAQAAAMygLrh99tlnf50X4pbtww8//F2FbfJnAa5Vt0waAxXLwZacyWT5V8trD7aMgM+zPwz4vPmr5HqswiHLvmXczujxr6lv4lhg5thza6pt1dWgHBpsqoGye6wrADCH8V2gWn3Hqu8x43vV4rvDarPRLI2Qb7X6bpnfNx89LPvVOh+ake+ehGmeiAyM0MvaAQAAwIwqMPHll1/+oMIVdYFG22/LC2/H2suXL7+f+wrADT1UUKMGVroZTOq5rQYzxqBPLa/WaxnkyfWrQZjxfPVdPneNEZi5pK0VXLkkGHPJzwAA+5K3c6pWYer6npB917accab+XX5/y/V8DBBvEvQ5R3c+L0wzmQyM0MvaAQAAwCxGgObTTz/9WV6M0bQKVuU+A/+PvTtWsePK978t+gJ8Ac6dTGzeKxicGyaewBfwBhM7eMGRGLAyJdYEihqBdUAoaJAwSCAOHAwNRkmDUaLgBMJ9Df+/f/OqPOWvanXVrr137equ54HFeLqratdevYdpVn+8Cpb2MWJZ5I8Z3eOMcuTOM3VP/V117h3w/tYY03SPuhp4BFdTHVvnHHs3IQBg3fJ3m11+nziCP3YdrFH/XL8/df+920EnT1oLMc0tkcEIbTl3AAAAsAa140g9wicXYQyjhpAG2LCz+qNKxTL1+IGhP6h0fxSqf4N5iR1z1qD7A9O9aeHQWffIrK3MDwDwqX6o0t/55YZHLS2iv0tNRD5Tfs85GTHNLZHBCG05dwAAAHBKtRuNnWiMm8bl5eU/8nMDwJ+tbfv/+oPUMcOVCovqD00f3/eNun/j+2N8AwBsTD42qds9r77eBbenetzTR3/aoabu5TbspiemuSUyGKEt5w4AAABOSUhjDI3apah2o/nw4cMX+ZkBYL1evHjxdffHoGM95qnUH7+6f4P7ph17uuimxtAxAMDdVoFM9ztDhTMDse9Z9zjIGh8fp7lYoNzflab+sx/VrC2WTmKaWyKDEdpy7gAAAOBUKpbIRRdjm+Pp06e/1kJcfSZqJ5rasSg/LwCsU+1CU3/syccTHPvf7u4HNd2oP5Ll15a4FwBgfbpHYU6JZCoI7kctCzz26ax+f+rurwLg+lp9o35v6b6+5sd4imluiQxGaMu5AwAAgFN4+/btN7ngkqMCizdv3nxfCzF2KAGAdak/OvV3fun++FR/GFrqjz71OvXHse4RDTnq3zRf4I9hAMAKVUyzy+Ob6neG7nFQx9zRrv94qRpD99d6NNWaiGluiQxGaMu5AwAAgFOoUCYXXLrx7Nmzny2+AMD6tHahWcMfeere6lEJNZaKeQCA9arfDeb8TlC/6xwzpuli5MZjp/r+9Aiq+uc84JTENLdEBiO05dwBAADA0q6urv6Wiy3dePnyZW1tDACsyNAuNPUHoPo3qbs/8hzzj04AALuqmKZi37X9jlK/U30MY5qPneqrULhC5o+PgloNMc0tkcEIbTl3AAAAsLTWgkvtSHN9ff1ZHg8AnEb929L9XWjqn+uPP/0/StUfqcQ0AMDa1O8ma9g9L43sRjOoC4Py66fUWtsR06xMBiO05dwBAADA0nKhpRtv3779Jo8FAE6n+yNU7w9Rn/wb1GIaAGCN1hrT3BVimlsigxHacu4AAABgSbXzTC601Hj69OmveSwAcFr1b073H+304MGDn+rRTvVvR3fHiGkAgDW6DTFN/U6Vv1sNqUc9PXr06If8+imJaW6JDEZoy7kDAACAJdWiSi601KhFmDwWADi97rEC9+/f/6Uf1tQfdOoPO2IaAGCN1hzT1O9QFSlntJy/T9XvYfU7V33/4cOHP/a/d2pimlsigxHacu4AAABgSfUop1xoqfHmzZvv81gAYF26fyu6/4efbtT38ngAgFPpYpqKUCqo2WWM7RSzr36knP/cHVM71nz33Xf/232v7qt/jVMT09wSGYzQlnMHAAAAS/qf//mf/y8XWmrU1/NYAGCd6g9M5+fn3/b/wNP9serFixdf5/FbkL/bGIZhGIbxn5H/v7mELqaZM3KHmEOqALleo3ai6aKd+s9up5qKZup3qu5ehnasWQMxzS2RwQhtOXcAAACwJDENANwtFc/0/+BToyKbrUU1+buNYRiGYRj/Gfn/m0voYpra7aV+V9llXF5e/iWvdyjdLn/5u1L994x61rYbTZ+Y5pbIYIS2nDsAAABYkpgGAO6m3K1mzX/8OYb83cYwDMMwjP+M/P/NJXQxzdp+J+ki5N//8Sy/10U0dcyxHzW1LzHNLZHBCG05dwAAALAkMQ0A3Hln9W9W579tfdfl7zaGYRiGYfxn5P9vLuEWxDSfqK/XY53y62skprklMhihLecOAAAAliSmAQAAAI7ttsY09f38+hqJaW6JDEZoy7kDAACAJYlpAAAAgGMT0xyXmOaWyGCEtpw7AAAAWJKYBgAAADi2q6urzyukqagmv3dKYhoWlcEIbTl3AAAAsCQxDQAAALBVXUxToU+O+vr9+/d/ya/XePHixdd5rVN68+bN97m2I6ZZoQxGaMu5AwAAgCWJaQAAALbr8vLyL6eIA7pdSmo8f/787/l9WEoX0+w61rZjTWt9R0yzMhmM0JZzBwAAAEtqLbaIaQAAAO68swcPHvzUxQFLP37n0aNHP3SvXVFNfh+WUBFZ7jozZSwZn01hfeeWyGCEtpw7AAAAWJLFFgAA7rraeaN2EOiPx48f/7P+GPr69euvpgYEQ9e5aZyfn3+b1whn9fp1H3X8d999978VNtQ/f9yp4yxP6Ox7L/VH4Dxml9G/1pCKJLpjp+460n9Peb9Lumluu89Nvac6Ls8t3bE1B/m9m/Rft16jvlbz0H/9PKeT99y6t1Tvp4tZTjTnZ/UIne4ept438CnrO7dEBiO05dwBAADAkiy2AABw11Usk4/nyFEhy1j0MeU6/XFT/HAvdgQZGhUZtOKCfe+lYo08ZpfRv1bKe6u5zWOG9M/L+11S3v9No+6zgqj++f3v978+pv8z6WKaun7/evlanQph+sdNCcT677M+i/n9pfTvoz7z+X1gmnqcU67t1Li4uHiZx3JCGYzQlnMHAAAASxLTAABw1/X/WF9hRwUK/d0w+qOiglbAkrt/1Kjr9c/tf6+100ddJ0Oaup/aySTvqxU57HsvrZ1p+vfVzdXQ6F8r9Xc76UYrAulbY0yTc9Cf49b7q+O6r19dXX3ev/ZN+jFN9/iY/rVqtHa7yfuaEtOc8vFOqf8+1/boHLgtPnz48EWu7dR4+vTpr3ksJ5TBCG05dwAAALAkMQ0AAHfdTZFGfS93aWkFLEP6EcDUIKEfm1QEkfFOxjbdLiVj5txLummuJjrrwo4KP7prtSKQvgO89kGM3Uf9fGoXowyP7n18LFf/57vLz2Ho55cxTY0MdCrkyWPGXreClZve49LqPQ3NJbCbXNvpxvX19Wd5LCeSwQhtOXcAAACwJDENAAB33VgcUSqQ6O8KM/bIp85QADHirB89ZEjT6ccFNTKgGDLjXj4xZa5u0o80KvLoBzX3RgKJfV/7UKbeR/+4/pz346ypn6PS//nl1/rhTl6zm+P+53fs57+mXWk6/QjJ7jQwTz3SKdd3avz+/yF/y2M5kQxGaMu5AwAAgCWJaQAAuOumxhH9EGTq7hi7BiwVQnTHj+2AU8dWYDDlEUll13sZMnWuWrpI4+P8/WlOxwKJfV/7UHa5j/6cdzsI9c+fuqtQ6Xb06eaudNev/+xHM73T/oiz6lFe3T/f9PPvh1pxrZPq77AzZScj4FNv3rz5Ptd3atTX81hOJIMR2nLuAAAAYEliGgAA7rpd4ohddvcouwYsQ/HFoex6L0N2mavUjzQqAvr45T9ij7F4aJ/XPqRd7qMfsHQ/z9ptqPtaRiF1TF2zRu5KNPSa/ZimHyZ1OxV1X6sAp3/fN/38+0FX3X9+/5S6oKjGvQkxG/BntQNNru/UePbs2c95LCeSwQhtOXcAAACwJDENAAB33dw4YmwnlbJrwLLr8bs4xLV3mavUn7v+bjr9Rz3d9LiqfV77kHa5j3780f+8tM7vx1r9mKr/mv3ApR/T3OuFSd2jnrq5rXhpakzT/3lM3fVoKWu+N7gNrq+vP8v1nW58+PDhizyeE8hghLacOwAAAFiSmAYAgLtulziiAoeh2KFl14ClewzS1ON3seu9DNllrlIXivQfU1T6O6rctBPKPq99SFPvo/++cs77P+fua/2de2r0d+rpv2YXypSIaf6ITT6e+0dcU+HJ1JimH/Tk98bUbjr1M6xr1D3UP9drtyKpOn5KlNbZ9X9/wKdqF5pc46nx+/8e/5HHcgIZjNCWcwcAAABLEtMAAHDXTY0jSj+Q6D2qqGnXgKU7duj4eu0KCIZGK1bo2/VehuwyV30VVNw0b90OLhVh5Pc6c1/70Ebu46zea73HfpSSx/V/Ft3XuscrDT3KqP/opf7PLmOa/jx34UkXL02Nabpj+vc2Rf/9Do36fs1LfY7r/XTH59zcpP+/PzENzFPRTK7x1PCop5XIYIS2nDsAAABYkpgGAIC7biSO+JN+1HDTLiqdXQOWfnyQx/evlSOPHbLrvQzZZa76KqK46bX73289vmfuax9a/z6mjI8xy7+jmE5/h5VuPrpdZepz1QU13Vz0j++HUxnTlO7c7j+7z+muMc1NYdOQ7ry6l/rfSd3zTZ/ZbtT7zmu19N/DLucB/1GPc8o1nm68f//+yzyehWUwQlvOHQAAACxJTAMAwF23S6TRjxqm7Iyxa8By02OebgoT8tghu97LkF3mquePxw21Ao2xnWvKzNc+uF1imo+fkT+FNKW/w0r3s+gHNF1Y081F999r9K8zFNNUPNO/h3qUUn19SkxTx3bH7DrHFdC0dkiq16vv1/uo91mf85uOb1nLZwBuu9ajnl69evWvPJaFZTBCW84dAAAALElMAwDAXbfLH+j7oUJrB5W+XQOW/vFj1x/a3eQmu97LkF3mqtMPR6aOewMBypzXPob+fVQclI/cqvf7cX4/eQ+d/jXqnP5///3bZ90OSBWd1PFD0Uzr6/0gpju/TIlp1jLHLfvEPsB/vH379ptc56nx5MmT366vrz/L41lQBiO05dwBAADAksQ0AADcdbsEBBVPjAUJfbsGLP0dSMYeI3VbYpr+bjtTRwUpeZ05r30Mh7qP7hr1c8x4JuOa7nOXjzYaimlK95il/s95SkxTumP6Ic5aHGruYesqmKlwJtd6rPesQAYjtOXcAQAAwJLENAAA3HVT/0DffxRRParm3g07j3R2DVj6u7i0HonUuQ0xTX8nkaFdXPqjHml007V3fe1jOdR9dI91qvfdRVT9gKp7jf7nruapf41WTDNk15imRn7v1G6aC2A39UinXOupYXeaE8tghLacOwAAAFiSmAYAgLtuYhxx1t9hZeof8mcELGddZDF2Tt3DlOM6M+7lExPn6g/9x2JNmbP+e7+6uvq8/71dX/tYDnUf/RCme9/9R3t1gU0/MspHfx0jpun/DPJ7p9b/zE/5PAFtHz58+CLXeqz5rEAGI7Tl3AEAAMCSxDQAANx1Y3FEfb8fGEzdlabMCVj68US9Vu3uksdUaNJ/JNSUa8+5lzQ2V+mmOGbITfHNrq99LIe6j+69Rrzyx+eqe/RTf+TP7RgxTf9zMvTZO6X+52PoUWDAbl6+fPljrvd0o2KbPJ4FZDBCW84dAAAALElMAwDAXdePDCpsqJigGxkz1PdbIUKFB/1za/RDidrZpv+9/iN9+io6qUci9V+zwpmKS+qc/ve6kfd0qHtJu4Qk/Ufy1Ovl94fkY6H637vp59Qax4hBdpmDm/R3WRmao/5cdKP//VKvP/U+psY0/WClgp78/in1P/tT4izgZjftTnNxcfEyj2cBGYzQlnMHAAAASxLTAABw1/Ujg5vGx2ChuSPN1OvE9Vr+9Fip1qi4YGiHjgPfyx92CUn6O+fsEmX0g4l+9LHre8rzD2WXObhJvp/ciaf05yLjonKMmKYf8WTgc0prvS+47V69evWvXPPpxtXV1d/yeI4sgxHacu4AAABgSWIaAADuuqFdXLpRu3RUrDJlh5ObrjM0JuwGc1YRSkUp/aiizq1HQQ1FNJ0j3Mu/9a87dk7/+vduiJBSva/uvH6Es+t7qjHl57arXebgJrWzyti9VmBz02vV11rfS/37HnqtvjXuAHPTI8CA+a6vrz978uTJb7nuU+Pp06e/1vfzHI4ogxHacu4AAABgSWIaAACAbek/gmpKqLOAs/5jytYS+MBdcXl5+Y9c97H+cyIZjNCWcwcAAABLEtMAAABszqrilRXGPXDnPHv27Odc++nGhw8fvsjjOZIMRmjLuQMAAIAliWkAAAC2px6x1QUs9Vix/P5SKuTpwp76z3s7PDIMmO7du3d/zbWfblxcXLzM4zmSDEZoy7kDAACAJYlpAAAAtunBgwc/dUHN69evv8rvL+Hhw4c/dvdQgU9+HzicV69e/SvXf7pxdXX1tzyeI8hghLacOwAAAFiSmAYAAGCbLi8v/9LfFWbpxz31d8d59OjRD/l94LCur68/e/LkyW+5BlTj6dOnv9b38xwOLIMR2nLuAAAAYEliGgAAgO168eLF16cIWirc6V7X451gOZeXl//INaBuvHnz5vs8ngPLYIS2nDsAAABYkpgGAAAAYDuePXv2c64DdeP9+/df5vEcUAYjtOXcAQAAwJLENAAAAADb8e7du7/mOlA3Li4uXubxHFAGI7Tl3AEAAMCSxDQAAAAA2/Lq1at/5VpQN96+fftNHs+BZDBCW84dAAAALElMAwAAALAt19fXnz158uS3XA+qUV+v7+c5HEAGI7Tl3AEAAMCSxDQAAAAA23N5efmPXA/qxps3b77P4zmADEZoy7kDAACAJYlpAAAAALbp4uLiZa4JdeP9+/df5vHsKYMR2nLuAAAAYEliGgAAAIBtqmAm14S6UaFNHs+eMhihLecOAAAAliSmAQAAANiueqRTrgt14+3bt9/k8ewhgxHacu4AAABgSWIaAAAAgO26vr7+7MmTJ7/l2lCN+np9P89hpgxGaMu5AwAAgCWJaQAAAAC2rXagybWhbtTONXk8M2UwQlvOHQAAACxJTAMAAADAxcXFy1wf6sb79++/zOOZIYMR2nLuAAAAYEliGgAAAAAqmMn1oW5UaJPHM0MGI7Tl3AEAAMCSxDQAAAAAlHqkU64RdaMeBZXHs6MMRmjLuQMAAIAliWkAAAAAKNfX1589efLkt1wnqlFfr+/nOewggxHacu4AAABgSWIaAAAAADq1A02uE3Wjdq7J49lBBiO05dwBAADAksQ0AAAAAPRdXFy8zLWibrx79+6veTwTZTBCW84dAAAALElMAwAAAEDf+/fvv8y1om48e/bs5zyeiTIYoS3nDgAAAJYkpgEAADi9q6urz//7v//7/7lp/H7YWZ4HcCz1SKdcL+pGPQoqj2eCDEZoy7kDAACAJYlpAADYsv/6r//6f8dGnnNqFVXkPeb4GF7MMuX63agAJM8/hbqPvLcca7nXmt/nz5///fHjx/98+PDhj999993/fvvtt/9nl/HgwYOf6tx6X69fv/5qLe8NuFuur68/e/LkyW+5ZlTj6dOnv+bxTJDBCG05dwAAALAkMQ0AAFuWkcLQ2CdMOYYKKPIec9Qxed5UU67fjQo68vxTqJ9R3luOE/4cz168ePH1o0ePfpgTzkwd9+/f/+X8/PzbE75P4A6qHWhyzagbdqeZIYMR2nLuAAAAYEliGgAAtiyDhKGxtjhhSuyyVExTo0KRvMbS1hjT1OvV7jN5H0uMCms+fgY8FgrY28XFxctcN6pRu9bU7jV5PDfIYIS2nDsAAABYkpgGAIAtywhhaCwdYYyZErssGdPUbiv3ThxtrCmmqdepHXvy9U81areaeyf++QC327t37/6a60bdsDvNjjIYoS3nDgAAAJYkpgEAYMsyPBgaS0UYU9XjgvIecywZ09SoHVjyOktaQ0xzdXX1+ZSfzSlGBU/7fCYAWrvTPHv27Oc8lhtkMEJbzh0AAAAsSUwDAMCWZXQwNI4dYexqyq4n+4QTc2KaGqecp1PHNK9fv/6qgpV8zbWN+uxU9JP3DzDmpt1p3r9//2UeT0MGI7Tl3AEAAMCSxDQAAGxZxgZD45gRxhxrjWnu37//S15rKaeMaWpXnnytNY+Kfir+yfcBMKZ2ocn1oxqvXr36Vx5LQwYjtOXcAQAAwJLENAAAbFmGBkPjWBHGXGuNafZ93X2cKqY5REjz4MGDn87Pz7+tuat7bI0XL158XcfUo6QOsQtOXS/fD8BN3r59+02uH9V48uTJb3ksDRmM0JZzBwAAAEsS0wAAsGUZGAyNY0QY+1hzTFPjFI8ROkVMUxFMvsaUUSFMBTEVs+wzV/V+KsKZex81BDXALq6vrz+rcCbXkGp41NNEGYzQlnMHAAAASxLTAACwZRkXDI3nz5//Pc87pbXHNHV/ec1jWzqmmbMjTUU0H38uZ3m9fdV7m/K5GBqHnBfg7nv58uWPuYZkHWkHGYzQlnMHAAAASxLTAACwZRkWDI3Xr19/leed0pRo4pQxTY2ldzxZMqaZMz8V39w7QkST6rN6//79X/L1bxoV+VxeXv4lrwUwpPWop2fPnv2cxzIggxHacu4AAABgSWIaAAC2LMOCoXGoCONQTh3TTHn9CjTuLRCPdJaKaSo6yeveNE4Vquy6c049KiqvATDkw4cPX+QaUjfyWAZkMEJbzh0AAAAsSUwDAMCWZVQwNA4RYRzS+fn5t3mPOY4Z09R8VHyRX8/xcTeWRSwV00x53934GKgsFhSl2h0o7+mmsc9nBtiW2oUm15FqvHv37q95LCGDEdpy7gAAAGBJYhoAALYsg4KhcYgI45DGYpca+4QRY9ev+ZgSr3TH5vWPYcr97HsvY/PSH6cOaTq7BjVXV1ef5zUA0qtXr/6V60g1Li8v/5HHEjIYoS3nDgAAAJYkpgEAYMsyJhga+0YYhzYl6jh2TFPHTdkh5/79+7/k9Y9hgZjmrB7ZlNccGh/f88lDms4uQc2SuwkBt9fbt2+/yXWkGhXZ5LGEDEZoy7kDAACAJYlpAADYsowJhsaeEcbBjcUuNZaIae5NDEz2uZepLi8v/5Kvm2Ofn+PYnBzqdY7l0aNHP+R9tobdaYAx9TinXEeqcXFx8TKPJWQwQlvOHQAAACxJTAMAwJZlSDA01hZHTAk79glYxq7fn4/Xr19/ld8fGksEGvmaOfb4OU6KhmrUbj158kpMfg92pwGmyHWkbuRxhAxGaMu5AwAAgCWJaQAA2LIMCYbGHhHGUYzFLjWWimnKw4cPf8xjctQx/XOOIV8zR973VFMfk7S2xzulqeFTRTf3Vvw+gHV4+vTpr7mWJKaZIIMR2nLuAAAAYEliGgAAtixDgqGR55zaWOxSY8mYpnadmbLrSUUp/fMOLV8vR973VFNioRoVq+S5azP1vRz7ZwXcfvVIp1xLqvH+/fsv81h6MhihLecOAAAAliSmAQBgyzIiGBp5zqmNxS41loxpppxT49g7nuTr5Ri67zEVCuV1hsbHXWlWb+ouO48ePfohzwXoa8U07969+2seS08GI7Tl3AEAAMCSxDQAAGxZRgRDI885tYpC8h5zLB3TlAcPHvyUx+Z4/PjxP/O8Q8nXytG675tMjU/2me+lTdlFqEaeB9D35s2b73MtSUwzQQYjtOXcAQAAwJLENAAAbFkGBEMjzzm1tcY0U+7rpvP3la+TY87r1g4teZ2hUTvY5LlrdX5+/m3e/9C4DY+tAk6ntZ4kphmRwQhtOXcAAACwpNbih5gGAIAtyIBgaOQ5pzYlWjlFTFOmhBrHeiRSvk6Om+67ZcouLrftkUhTH121z2cIuPta60limhEZjNCWcwcAAABLai1+iGkAANiCDAhyHCv82MeaY5rfnU0JUPa5v5Z8jRwj9/2JuxydTPkZPXz48Mc8D6DTWk8S04zIYIS2nDsAAABYUmvxQ0wDAMAWZECQY41Bwcpjmnv1eKA8Z2gc+tFIef0cY/edpszznOuuwZTHV1Vwk+cBdFrrSWKaERmM0JZzBwAAAEtqLX6IaQAA2IIMCHKIaT4dU+KRmrc8L8eh5zavn2PKffeNzUM3fj/0LM9du6nv7dDBE3B3tNaTxDQjMhihLecOAAAAltRa/BDTAACwBRkP5Dh08HEItyGmqQhjyqOEXrx48XWeO1deO8eU++47Pz//Nq+RY42PAZtiymeoxq5zBmxHaz1JTDMigxHacu4AAABgSa3FDzENAABbkPFADjHNp2NqYDF2nRofHyV0kJ1d8to5pt53Z8ruOvW4pDzvljjL9zI0dp0zYDta60limhEZjNCWcwcAAABLai1+iGkAANiCjAdyrDGmKXmfOdYQ05QHDx78lOfnePz48T/zvDnyujl2ue8yJabZZ55PLd/L0LjN7w84rtZ6kphmRAYjtOXcAQAAwJJaix9iGgAAtiDjgRximk/HLlHKlF10dr1mS14zx66vkecPjX3m+dTueiwEHFdrPUlMMyKDEdpy7gAAAGBJrcUPMQ0AAFuQ8UAOMc2nY9co5fz8/Nu8Ro779+//kuftKq+ZY9f7zvOHxuvXr7/K824LMQ2wj9Z6kphmRAYjtOXcAQAAwJJaix9iGgAAtiDjgRximk/HrlHK786+++67/83r5NjnnkteL8eu953nD41dr7kmYhpgH631JDHNiAxGaMu5AwAAgCW1Fj/ENAAAbEHGAznENJ+OOQFJ7eCS1xkaV1dXn+e5U+W1cux633n+0Nj1mmsyJaZ59OjRD3keQGmtJ4lpRmQwQlvOHQAAACyptfghpgEAYAsyHsghpvl0zA1IpsQb+8x3XivHrved5w+NXa+5Jsf+eQB3W2s9SUwzIoMR2nLuAAAAYEmtxQ8xDQAAW5DxQI41xgQVcOR95lhjTFO7zkx53NOLFy++znOnyOvk2PW+8/yhses112RKTPP48eN/5nkApbWeJKYZkcEIbTl3AAAAsKTW4oeYBgCALch4IIeY5tOxT0Aydu0aFdz8fuhZnjsmr5Nj1/vO84fGrtdckykxzT6fI+Bua60niWlGZDBCW84dAAAALKm1+CGmAQBgCzIeyCGm+XTsG5A8ePDgp7xmjjk7ouQ1cux633n+0Ji7i84aiGmAfbTWk8Q0IzIYoS3nDgAAAJbUWvwQ0wAAsAUZD+QQ03w6do1S0pT7n/M6eX6OXa835ZFU+8zzqYlpgH201pPENCMyGKEt5w4AAACW1Fr8ENMAALAFGQ/kWGNM8/r166/yPnPsE0EcO6Yp5+fn3+Z1c9y/f/+XPO8meX6OXe/7rscm+V6GxvPnz/+e5wGU1nqSmGZEBiO05dwBAADAklqLH2IaAAC2IOOBHLsGHUsYi11q7BN5jF1/1yil4ezQO7/kuTl2ve8pMc0aY6uJzvK9DI1d5wzYjtZ6kphmRAYjtOXcAQAAwJJaix9iGgAAtiDjgaGR55zaWOxSY5cIJY1d/1CBxZQddmpcXV19nucOyfNy7HrfY/NQo4KgPO82mPqorcvLy7/kuQCltZ4kphmRwQhtOXcAAACwpNbih5gGAIAtyHhgaPx+2Fmed0pTdky5DTFNmfJepu7+kufl2PW+6xFHeY2hMTX2WZOxn3E38jyATms9SUwzIoMR2nLuAAAAYEmtxQ8xDQAAW5DxwNDYNcI4tikBym2JaSpEmfK4pxcvXnyd56YHDx78lOftc99Td2+pHXby3LV79OjRD/k+ctR85nkAndZ6kphmRAYjtOXcAQAAwJJaix9iGgAAtiADgqGxtlgi729o3JaYpoy9Xo2Pj1O6cYegschoxn2f5TWGxj5zfSr379//Jd9HjsePH/8zzwPotNaTxDQjMhihLecOAAAAltRa/BDTAACwBWO7mawtlri8vPxL3t/Q2Oeex+KWGVHKqCk/h7G44wgxzaTo5Lbt4FK7AeV7GBr1mKs8F6DTWk8S04zIYIS2nDsAAABYUmvxQ0wDAMAWjAUYNeqYPO9UKnDI+xsaUx6L1HKKmGbqI5Vueu2xn+VN57ZUwJPXGRoVOeW5azX28+1GRTd5LkCntZ4kphmRwQhtOXcAAACwpNbih5gGAIAtGAswanx8xNAqTI075oQjnbHY4lg7lpyfn3+br5WjdorJ8zpjP8s5c1KP+MrrDI2xXXPWZMpuOzfNM0BprSeJaUZkMEJbzh0AAAAsqbX4IaYBAGALpgQcNday88iUEKLG74ee5blTjcU0+zxCasTZlPfXev1jxDS/O8vrDI2PwdXsOV/K1B2A6n8XeS5AX2s9SUwzIoMR2nLuAAAAYEmtxQ8xDQAAWzAWjqwpLpgaQuy7k87YnLRilkOYshNMvb+hRxAdKaa59+jRox/yWkNjn0drLWXqzkZriceA9WqtJ4lpRmQwQlvOHQAAACyptfghpgEAYAsqGsiQYGis4bE3U0OIij/y3F2cMqYpU+KVCmfyvGPFNFMCnxpr351m6mf9wYMHP+W5AKm1niSmGZHBCG05dwAAALCk1uKHmAYAgK2oCCKDgqFx4t06Jj1uqMbz58//nifv4tQxTe06M+VnUpFL/7xjxTRlyv3U2DdkOqaKZPJ+h8Zt2GEHOL3WepKYZkQGI7Tl3AEAAMCSWosfYhoAALZiqR1f9jEWuPTH0COQdjH2WseOaUoFQfm6OXInmGPGNGNz0h8Z+azB1Ptfww5MwO3QWk8S04zIYIS2nDsAAABYUmvxQ0wDAMBW1E4cGRW0xj5BxlxTH89T4xCP6BkLL5aIacqUnVTOz8+/7Y4/Zkzzu7Opu9Nk5HNq9fmZeu92pQGmaq0niWlGZDBCW84dAAAALKm1+CGmAQBgK2onl4wKWuMUO3eMRSL9se8jnspaYpqpEVEXyYzN054xzei89Ed9Tk78WLB/2yWkOcVnG7i9WutJYpoRGYzQlnMHAAAAS2otfohpAADYkqmPeqpRx+b5x7LLfR0qhhiLRpaKaUrtPJOvn6PbjefYMU2ZsltONypiOWVQs0tIU+MQ8wNsR2s9SUwzIoMR2nLuAAAAYEmtxQ8xDQAAW7LL7jQ1+o8XOpZdQpoah3pEz5pimt+dVSSU95Cj7mmJmGbqbjndqJjlEK+7q11DmiU+z8Dd0lpPEtOMyGCEtpw7AAAAWFJr8UNMAwDA1oxFJDkO8Uilll1DmkPtSlPG5mHhmObe69evv8p7yFHhyFh0c6ioZWx+hkb9PCvYymsdwdmun52PO/uc5YUAbtJaTxLTjMhghLacOwAAAFhSa/FDTAMAwAad7bKbRxciHPJRPhV87PIooW5UcJLXmmssFlk6pimPHj36Ie9j13GomKbsGqzUqM/Wx7k7SrhS197181vH3zvS/QB3W2s9SUwzIoMR2nLuAAAAYEmtxQ8xDQAAW1SPSsrgYMqouGKfqKZimLnBSL12Xm8fa4xpaleXXUORHIeMaX53Nid6qlHvo35mHwOovUKWukY9omlsV56hUfexz2cW2LbWepKYZkQGI7Tl3AEAAMCSWosfYhoAALZqblBTo6KGLpSoeGPo0T4VMNT36nUqoNknEjl0SFPWGNOUeqxW3ssu48AxTZkd1PRHfQZqTuv+bopbus9NzcPc8KobQhpgX631JDHNiAxGaMu5AwAAgCW1Fj/ENAAAbNmcx/gsPSrkuLfnziZD1hrTlH3ilSPENOXs4cOHP+ZrrXkIaYBDaK0niWlGZDBCW84dAAAALKm1+CGmAQBg69Yc1FTAce8IIU1Zc0xTEUjez9RxpJjm38bmbC3jmJ8bYFta60limhEZjNCWcwcAAABLai1+iGkAAODevXpc0z6PYTrGOHbMMhaGHPv1x5yfn3+b9zRlHDOmKXX9esxXvu4aRn2GT/1zA+6W1nqSmGZEBiO05dwBAADAklqLH2IaAAD4/11dXX2+hkf51COOlng8z9pjmt+dzYlWjh3TfHRW87OmAOvRo0c/1Gc4bxRgH631JDHNiAxGaMu5AwAAgCW1Fj/ENAAA8GcvXrz4ek7Ese+o13z+/Pnf7y30eJ5bENP8e8egvK+xsVBM828Vr9QOOqeMauoxZUu+Z2BbWutJYpoRGYzQlnMHAAAAS2otfohpAABgWAUKtdtHxguHHvUaFY3k6x/bbYhpyq4/gxOFJWcVYS21s1GFVxXx2IkGOLbWepKYZkQGI7Tl3AEAAMCSWosfYhoAALhZBQsVStQOIIfYsaZ2MalApHahOWUM0cUfrVHfz3NOoXv81tSxxCOyRvw7rKnPSz2yK3/+c0b3manAaQXvD9iQ1nqSmGZEBiO05dwBAADAklqLH2IaAADY2VntJFNhQ42MOfqjCyBq1I4pp4xnOJmz+tlXYFOfg9pRJj8nQ5+Ziq18ZoBTa60niWlGZDBCW84dAAAALKm1+CGmAQAAAGBIaz1JTDMigxHacu4AAABgSa3FDzENAAAAAENa60limhEZjNCWcwcAAABLai1+iGkAAAAAGNJaTxLTjMhghLacOwAAAFhSa/FDTAMAAADAkNZ6kphmRAYjtOXcAQAAwJJaix9iGgAAAACGtNaTxDQjMhihLecOAAAAltRa/BDTAAAAADCktZ4kphmRwQhtOXcAAACwpNbih5gGAAAAgCGt9SQxzYgMRmjLuQMAAIAltRY/xDQAAAAADGmtJ4lpRmQwQlvOHQAAACyptfghpgEAAABgSGs9SUwzIoMR2nLuAAAAYEmtxQ8xDQAAAABDWutJYpoRGYzQlnMHAAAAS2otfohpAAAAABjSWk8S04zIYIS2nDsAAABYUmvxQ0wDAAAAwJDWepKYZkQGI7Tl3AEAAMCSWosfYhoAAAAAhrTWk8Q0IzIYoS3nDgAAAJbUWvwQ0wAAAAAwpLWeJKYZkcEIbTl3AAAAsKTW4oeYBgAAAIAhrfUkMc2IDEZoy7kDAACAJbUWP8Q0AAAAAAxprSeJaUZkMEJbzh0AAAAsqbX4IaYBAAAAYEhrPUlMMyKDEdpy7gAAAGBJrcUPMQ0AAAAAQ1rrSWKaERmM0JZzBwAAAEtqLX6IaQAAAAAY0lpPEtOMyGCEtpw7AAAAWFJr8UNMAwAAAMCQ1nqSmGZEBiO05dwBAADAklqLH2IaAAAAAIa01pPENCMyGKEt5w4AAACW1Fr8ENMAAAAAMKS1niSmGZHBCG05dwAAALCk1uKHmAYAAACAIa31JDHNiAxGaMu5AwAAgCW1Fj/ENAAAAAAMaa0niWlGZDBCW84dAAAALKm1+CGmAQAAAGBIaz1JTDMigxHacu4AAABgSa3FDzENAAAAAENa60limhEZjNCWcwcAAABLai1+iGkAAAAAGNJaTxLTjMhghLacOwAAAFhSa/FDTAMAAADAkNZ6kphmRAYjtOXcAQAAwJJaix9iGgAAAACGtNaTxDQjMhihLecOAAAAltRa/BDTAAAAADCktZ4kphmRwQhtOXcAAACwpNbih5gGAAAAgCGt9SQxzYgMRmjLuQMAAIAltRY/xDQAAAAADGmtJ4lpRmQwQlvOHQAAACyptfghpgEAAABgSGs9SUwzIoMR2nLuAAAAYEmtxQ8xDQAAAABDWutJYpoRGYzQlnMHAAAAS2otfohpAAAAABjSWk8S04zIYIS2nDsAAABYUi1y5MJHjZcvX/6YxwIAAACAmGamDEZoy7kDAACAJb1///7LXPjoxvX19Wd5PAAAAADbJqaZKYMR2nLuAAAAYGlPnz79NRc/arx9+/abPBYAAACAbRPTzJTBCG05dwAAALC0N2/efJ+LHzUuLi5e5rEAAAAAbJuYZqYMRmjLuQMAAICl1UJHLn504/Ly8h95PAAAAADbJaaZKYMR2nLuAAAA4BSePHnyWy6AdMPjngAAAADoiGlmymCEtpw7AAAAOIXagSYXQPqjHvlkQQQAAAAAMc1MGYzQlnMHAAAAp1LBTC6CDI2nT5/+Wscad3P87sdaFKsdiT58+PBFfk4AAACAbRPTzJTBCG05dwAAAHAq79+///Kmxz0Z2xzPnj37uXYuEtYAAAAARUwzUwYjtOXcAQAAwCkJaoybxps3b76/vr7+LD83AAAAwHaIaWbKYIS2nDsAAAA4tQpqajeSXBAxjBr1mK+rq6u/5ecGAAAA2AYxzUwZjNCWcwcAAABrULuPvH379psKJ3JhxDBqWCADAACAbRLTzJTBCG05dwAAALA2FdW8fPnyx4uLi5e5SGJsd9TjwGoXo/y8AAAAAHebmGamDEZoy7kDAACA26AWR4y7O2pRbMqjviqoqV2M8vMBAAAA3F1impkyGKEt5w4AAABgLT58+PDFmzdvvs/Fsf6onYvyPAAAAODuEtPMlMEIbTl3AAAAAGtTi2G1C00uktV4+vTpr3k8AAAAcHeJaWbKYIS2nDsAAACANaodaHKRrBt2pwEAAIDtENPMlMEIbTl3AAAAAGt1cXHxMhfKatSjoPJYAAAA4G4S08yUwQhtOXcAAAAAa3V1dfW3XCirUZFNHgsAAADcTWKamTIYoS3nDgAAAGCtPnz48EUulNV49uzZz3ksAAAAcDeJaWbKYIS2nDsAAACANcuFsm7kcQAAAMDdJKaZKYMR2nLuAAAAANasdqHJxTIxDQAAAGyHmGamDEZoy7kDAAAAWLOLi4uXuVgmpgEAAIDtENPMlMEIbTl3AAAAAGsmpgEAAIBtE9PMlMEIbTl3AAAAAGsmpgEAAIBtE9PMlMEIbTl3AAAAAGsmpgEAAIBtE9PMlMEIbTl3AAAAAGsmpgEAAIBtE9PMlMEIbTl3AAAAAGsmpgEAAIBtE9PMlMEIbTl3AAAAAGsmpgEAAIBtE9PMlMEIbTl3AAAAAGsmpgEAAIBtE9PMlMEIbTl3AAAAAGsmpgEAAIBtE9PMlMEIbTl3AAAAAGsmpgEAAIBtE9PMlMEIbTl3AAAAAGsmpgEAAIBtE9PMlMEIbTl3AAAAAGsmpgEAAIBtE9PMlMEIbTl3AAAAAGsmpgEAAIBtE9PMlMEIbTl3AAAAAGsmpgEAAIBtE9PMlMEIbTl3AAAAAGsmpgEAAIBtE9PMlMEIbTl3AAAAAGsmpgEAAIBtE9PMlMEIbTl3AAAAAGsmpgEAAIBtE9PMlMEIbTl3AAAAAGsmpgEAAIBtE9PMlMEIbTl3AAAAAGsmpgEAAIBtE9PMlMEIbTl3AAAAAGsmpgEAAIBtE9PMlMEIbTl3AAAAAGsmpgEAAIBtE9PMlMEIbTl3AAAAAGsmpgEAAIBtE9PMlMEIbTl3AAAAAGsmpgEAAIBtE9PMlMEIbTl3AAAAAGsmpgEAAIBtE9PMlMEIbTl3AAAAAGsmpgEAAIBtE9PMlMEIbTl3AAAAAGsmpgEAAIBtE9PMlMEIbTl3AAAAAGsmpgEAAIBtE9PMlMEIbTl3AAAAAGsmpgEAAIBtE9PMlMEIbTl3AAAAAGsmpgEAAIBtE9PMlMEIbTl3AAAAAGsmpgEAAIBtE9PMlMEIbTl3AAAAAGsmpgEAAIBtE9PMlMEIbTl3AAAAAGsmpgEAAIBtE9PMlMEIbTl3AAAAAGsmpgEAAIBtE9PMlMEIbTl3AAAAAGsmpgEAAIBtE9PMlMEIbTl3AAAAAGsmpgEAAIBtE9PMlMEIbTl3AAAAAGsmpgEAAIBtE9PMlMEIbTl3AAAAAGsmpgEAAIBtE9PMlMEIbTl3AAAAAGsmpgEAAIBtE9PMlMEIbTl3AAAAAGsmpucuONwAAFMfSURBVAEAAIBtE9PMlMEIbTl3AAAAAGsmpgEAAIBtE9PMlMEIbTl3AAAAAGsmpgEAAIBtE9PMlMEIbTl3AAAAAGsmpgEAAIBtE9PMlMEIbTl3AAAAAGsmpgEAAIBtE9PMlMEIbTl3AAAAAGsmpgEAAIBtE9PMlMEIbTl3AAAAAGsmpgEAAIBtE9PMlMEIbTl3AAAAAGsmpgEAAIBtE9PMlMEIbTl3AAAAAGsmpgEAAIBtE9PMlMEIbTl3AAAAAGsmpgEAAIBtE9PMlMEIbTl3AAAAAGsmpgEAAIBtE9PMlMEIbTl3AAAAAGsmpgEAAIBtE9PMlMEIbTl3AAAAAGsmpgEAAIBtE9PMlMEIbTl3AAAAAGsmpgEAAIBtE9PMlMEIbTl3AAAAAGsmpgEAAIBtE9PMlMEIbTl3AAAAAGsmpgEAAIBtE9PMlMEIbTl3AAAAAGsmpgEAAIBtE9PMlMEIbTl3AAAAAGsmpgEAAIBtE9PMlMEIbTl3AAAAAGsmpgEAAIBtE9PMlMEIbTl3AAAAAGsmpgEAAIBtE9PMlMEIbTl3AAAAAGsmpgEAAIBtE9PMlMEIbTl3AAAAAGsmpgEAAIBtE9PMlMEIbTl3AAAAAGsmpgEAAIBtE9PMlMEIbTl3AAAAAGsmpgEAAIBtE9PMlMEIbTl3AAAAAGsmpgEAAIBtE9PMlMEIbTl3AAAAAGsmpgEAAIBtE9PMlMEIbTl3AAAAAGsmpgEAAIBtE9PMlMEIbTl3AAAAAGsmpgEAAIBtE9PMlMEIbTl3AAAAAGsmpgEAAIBtE9PMlMEIbTl3AAAAAGsmpgEAAIBtE9PMlMEIbTl3AAAAAGsmpgEAAIBtE9PMlMEIbTl3AAAAAGsmpgEAAIBtE9PMlMEIbTl3AAAAAGsmpgEAAIBtE9PMlMEIbTl3AAAAAGsmpgEAAIBtE9PMlMEIbTl3AAAAAGsmpgEAAIBtE9PMlMEIbTl3AAAAAGsmpgEAAIBtE9PMlMEIbTl3AAAAAGsmpgEAAIBtE9PMlMEIbTl3AAAAAGsmpgEAAIBtE9PMlMEIbTl3AAAAAGsmpgEAAIBtE9PMlMEIbTl3AAAAAGsmpgEAAIBtE9PMlMEIbTl3AAAAAGsmpgEAAIBtE9PMlMEIbTl3AAAAAGsmpgEAAIBtE9PMlMEIbTl3AAAAAGsmpgEAAIBtE9PMlMEIbTl3AAAAAGsmpgEAAIBtE9PMlMEIbTl3AAAAAGsmpgEAAIBtE9PMlMEIbTl3AAAAAGsmpgEAAIBtE9PMlMEIbTl3AAAAAGsmpgEAAIBtE9PMlMEIbTl3AAAAAGsmpgEAAIBtE9PMlMEIbTl3AAAAAGsmpgEAAIBtE9PMlMEIbTl3AAAAAGsmpgEAAIBtE9PMlMEIbTl3AAAAAGsmpgEAAIBtE9PMlMEIbTl3AAAAAGsmpgEAAIBtE9PMlMEIbTl3AAAAAGsmpgEAAIBtE9PMlMEIbTl3AAAAAGsmpgEAAIBtE9PMlMEIbTl3AAAAAGsmpgEAAIBtE9PMlMEIbTl3AAAAAGsmpgEAAIBtE9PMlMEIbTl3AAAAAGsmpgEAAIBtE9PMlMEIbTl3AAAAAGsmpgEAAIBtE9PMlMEIbTl3AAAAAGsmpgEAAIBtE9PMlMEIbTl3AAAAAGsmpgEAAIBtE9PMlMEIbTl3AAAAAGsmpgEAAIBtE9PMlMEIbTl3AAAAAGsmpgEAAIBtE9PMlMEIbTl3AAAAAGsmpgEAAIBtE9PMlMEIbTl3AAAAAGsmpgEAAIBtE9PMlMEIbTl3AAAAAGsmpgEAAIBtE9PMlMEIbTl3AAAAAGsmpgEAAIBtE9PMlMEIbTl3AAAAAGsmpgEAAIBtE9PMlMEIbTl3AAAAAGsmpgEAAIBtE9PMlMEIbTl3AAAAAGsmpgEAAIBtE9PMlMEIbTl3AAAAAGsmpgEAAIBtE9PMlMEIbTl3AAAAAGsmpgEAAIBtE9PMlMEIbTl3AAAAAGsmpgEAAIBtE9PMlMEIbTl3AAAAAGsmpgEAAIBtE9PMlMEIbTl3AAAAAGsmpgEAAIBtE9PMlMEIbTl3AAAAAGsmpgEAAIBtE9PMlMEIbTl3AAAAAGsmpgEAAIBtE9PMlMEIbTl3AAAAAGsmpgEAAIBtE9PMlMEIbTl3AAAAAGsmpgEAAIBtE9PMlMEIbTl3AAAAAGsmpgEAAIBtE9PMlMEIbTl3AAAAAGsmpgEAAIBtE9PMlMEIbTl3AAAAAGsmpgEAAIBtE9PMlMEIbTl3AAAAAGsmpgEAAIBtE9PMlMEIbTl3AAAAAGsmpgEAAIBtE9PMlMEIbTl3AAAAAGsmpgEAAIBtE9PMlMEIbTl3AAAAAGsmpgEAAIBtE9PMlMEIbTl3AAAAAGsmpgEAAIBtE9PMlMEIbTl3AAAAAGsmpgEAAIBtE9PMlMEIbTl3AAAAAGsmpgEAAIBtE9PMlMEIbTl3AAAAAGsmpgEAAIBtE9PMlMEIbTl3AAAAAGsmpgEAAIBtE9PMlMEIbTl3AAAAAGsmpgEAAIBtE9PMlMEIbTl3AAAAAGsmpgEAAIBtE9PMlMEIbTl3AAAAAGsmpgEAAIBtE9PMlMEIbTl3APxf9u6gxZIrvRN3kR9AH2D22sxa+BMY7wd6PQt9gFlo3YuGXjUG9eIP2lhaaNUkqNoUjRHuYv6UTCGQBQVNbgqENoUZcKH0wguDwVjTr5yn5uhXcW7ejIq4NzLjeeClVHEj40a+cSNSGedXJwAAgC0TpgEAAIB9E6aZKQMjjGXvAAAAALZMmAYAAAD2TZhmpgyMMJa9AwAAANgyYRoAAADYN2GamTIwwlj2DgAAAGDLhGkAAABg34RpZsrACGPZOwAAAIAtE6YBAACAfROmmSkDI4xl7wAAAAC2TJgGAAAA9k2YZqYMjDCWvQMAAADYMmEaAAAA2DdhmpkyMMJY9g4AAABgy4RpAAAAYN+EaWbKwAhj2TsAAACALROmAQAAgH0TppkpAyOMZe8AAAAAtkyYBgAAAPZNmGamDIwwlr0DAAAA2DJhGgAAANg3YZqZMjDCWPYOAAAAYMuEaQAAAGDfhGlmysAIY9k7AAAAgC0TpgEAAIB9E6aZKQMjjGXvAAAAALZMmAYAAAD2TZhmpgyMMJa9AwAAANgyYRoAAADYN2GamTIwwlj2DgAAAGDLhGkAAABg34RpZsrACGPZOwAAAIAtE6YBAACAfROmmSkDI4xl7wAAAAC2TJgGAAAA9k2YZqYMjDCWvQMAAADYMmEaAAAA2DdhmpkyMMJY9g4AAABgy4RpAAAAYN+EaWbKwAhj2TsAAACALROmAQAAgH0TppkpAyOMZe8AAAAAtkyYBgAAAPZNmGamDIwwlr0DAAAA2DJhGgAAANg3YZqZMjDCWPYOAAAAYMuEaQAAAGDfhGlmysAIY9k7AAAAgC0TpgEAAIB9E6aZKQMjjGXvAAAAALZMmAYAAAD2TZhmpgyMMJa9AwAAANgyYRoAAADYN2GamTIwwlj2DgAAAGDLhGkAAABg34RpZsrACGPZOwAAAIAtE6YBAACAfROmmSkDI4xl7wAAAAC2TJgGAAAA9k2YZqYMjDCWvQMAAADYMmEaAAAA2DdhmpkyMMJY9g4AAABgy4RpAAAAYN+EaWbKwAhj2TsAAACALROmAQAAgH0TppkpAyOMZe8AAAAAtkyYBgAAAPZNmGamDIwwlr0DAAAA2DJhGgAAANg3YZqZMjDCWPYOAAAAYMuEaQAAAGDfhGlmysAIY9k7AAAAgC0TpgEAAIB9E6aZKQMjjGXvAAAAALZMmAYAAAD2TZhmpgyMMJa9AwAAANgyYRoAAADYN2GamTIwwlj2DgAAAGDLhGkAAABg34RpZsrACGPZOwAAAIAtE6YBAACAfROmmSkDI4xl7wAAAAC2TJgGAAAA9k2YZqYMjDCWvQMAAADYMmEaAAAA2DdhmpkyMMJY9g4AAABgy4RpAAAAYN+EaWbKwAhj2TsAAACALROmAQAAgH0TppkpAyOMZe8AAAAAtkyYBgAAAPZNmGamDIwwlr0DAAAA2DJhGgAAANg3YZqZMjDCWPYOAAAAYMuEaQAAAGDfhGlmysAIY9k7AAAAgC0TpgEAAIB9E6aZKQMjjGXvAAAAALZMmAYAAAD2TZhmpgyMMJa9AwAAANgyYRoAAADYN2GamTIwwlj2DgAAAGDLhGkAAABg34RpZsrACGPZOwAAAIAtE6YBAACAfROmmSkDI4xl7wAAAAC2TJgGAAAA9k2YZqYMjDCWvQMAAADYMmEaAAAA2DdhmpkyMMJY9g4AAABgy4RpAAAAYN+EaWbKwAhj2TsAAACALROmAQAAgH0TppkpAyOMZe8AAAAAtkyYBgAAAPZNmGamDIwwlr0DAAAA2DJhGgAAANg3YZqZMjDCWPYOAAAAYMuEaQAAAGDfhGlmysAIY9k7AAAAgC0TpgEAAIB9E6aZKQMjjGXvAAAAALZMmAYAAAD2TZhmpgyMMJa9AwAAANgyYRoAAADYN2GamTIwwlj2DgAAAGDLhGkAAABg34RpZsrACGPZOwAAAIAtE6YBAACAfROmmSkDI4xl7wAAAAC2TJgGAAAA9k2YZqYMjDCWvQMAAADYMmEaAAAA2DdhmpkyMMJY9g4AAABgy4RpAAAAYN+EaWbKwAhj2TsAAACALROmAQAAgH0TppkpAyOMZe8AAAAAtkyYBgAAAPZNmGamDIwwlr0DAAAA2DJhGgAAANg3YZqZMjDCWPYOAAAAYMuEaQAAAGDfhGlmysAIY9k7AAAAgC0TpgEAAIB9E6aZKQMjjGXvAAAAALZMmAYAAAD2TZhmpgyMMJa9AwAAANgyYRoAAADYN2GamTIwwlj2DgAAAGDLhGkAAABg34RpZsrACGPZOwAAAIAtE6YBAACAfROmmSkDI4xl7wAAAAC2TJgGAAAA9k2YZqYMjDCWvQMAAADYMmEaAAAA2DdhmpkyMMJY9g4AAABgy4RpAAAAYN+EaWbKwAhj2TsAAACALROmAQAAgH0TppkpAyOMZe8AAAAAtkyYBgAAAPZNmGamDIwwlr0DAAAA2DJhGgAAANg3YZqZMjDCWPYOAAAAYMuEaQAAAGDfhGlmysAIY9k7AAAAgC0TpgEAAIB9E6aZKQMjjGXvAAAAALZMmAYAAAD2TZhmpgyMMJa9AwAAANgyYRoAAADYN2GamTIwwlj2DgAAAGDLhGkAAABg34RpZsrACGPZOwAAAIAtE6YBAACAfROmmSkDI4xl7wAAAAC2TJgGAAAA9k2YZqYMjDCWvQMAAADYMmEaAAAA2DdhmpkyMMJY9g4AAABgy4RpAAAAYN+EaWbKwAhj2TsAAACALROmAQAAgH0TppkpAyOMZe8AAAAAtkyYBgAAAPZNmGamDIwwlr0DAAAA2DJhGgAAANg3YZqZMjDCWPYOAAAAYMuEaQAAAGDfhGlmysAIY9k7AAAAgC0TpgEAAIB9E6aZKQMjjGXvAAAAALZMmAYAAAD2TZhmpgyMMJa9AwAAANgyYRoAAADYN2GamTIwwlj2DgAAAGDLhGkAAABg34RpZsrACGPZOwAAAIAtE6YBAACAfROmmSkDI4xl7wAAAAC2TJgGAAAA9k2YZqYMjDCWvQMAAADYMmEaAAAA2DdhmpkyMMJY9g4AAABgy4RpAAAAYN+EaWbKwAhj2TsAAACALROmAQAAgH0TppkpAyOMZe8AAAAAtkyYBgAAAPZNmGamDIwwlr0DAAAA2DJhGgAAANg3YZqZMjDCWPYOAAAAYMuEaQAAAGDfhGlmysAIY9k7AAAAgC0TpgEAAIB9E6aZKQMjjGXvAAAAALZMmAYAAAD2TZhmpgyMMJa9AwAAANgyYRoAAADYN2GamTIwwlj2DgAAAGDLhGkAAABg34RpZsrACGPZOwAAAIAtE6YBAACAfROmmSkDI4xl7wAAAAC2TJgGAAAA9k2YZqYMjDCWvQMAAADYMmEaAAAA2DdhmpkyMMJY9g4AAABgy4RpAAAAYN+EaWbKwAhj2TsAAACALROmAQAAgH0TppkpAyOMZe8AAAAAtkyYBgAAAPZNmGamDIwwlr0DAAAA2DJhGgAAANg3YZqZMjDCWPYOAAAAYMuEaQAAAGDfhGlmysAIY9k7AAAAgC0TpgEAAIB9E6aZKQMjjGXvAAAAALZMmAYAAAD2TZhmpgyMMJa9AwAAANgyYRoAAADYN2GamTIwwlj2DgAAAGDLhGkAAABg34RpZsrACGPZOwAAAIAtE6YBAACAfROmmSkDI4xl7wAAAAC2TJgGAAAA9k2YZqYMjDCWvQMAAADYMmEaAAAA2DdhmpkyMMJY9g4AAABgy4RpAAAAYN+EaWbKwAhj2TsAAACALROmAQAAgH0TppkpAyOMZe8AAAAAtkyYBgAAAPZNmGamDIwwlr0DAAAA2DJhGgAAANg3YZqZMjDCWPYOAAAAYMuEaQAAAGDfhGlmysAIY9k7AAAAgC0TpgEAAIB9E6aZKQMjjGXvAAAAALZMmAYAAAD2TZhmpgyMMJa9AwAAANgyYRoAAADYN2GamTIwwlj2DgAAAGDLhGkAAABg34RpZsrACGPZOwAAAIAtE6YBAACAfROmmSkDI4xl7wAAAAC2TJgGAAAA9k2YZqYMjDCWvQMAAADYMmEaAAAA2DdhmpkyMMJY9g4AAABgy4RpAOB+e/ny5X/7+uuv/2JUL168+O/5Nceor/3DH/7wP3//+9//r/qz/p7rNP375Wu3uJjaz/wejqnaVrfdW/sy9TXw0PWf/zpH8vUJb87R286ZOodrnWOvOTP2pUxeM95FbeePf/zj/6hrXdVXX331V3fYnzdqn9o1s6q2OWc7c7TeH1uPJo5jv41bevvmGNR/54vcX8I0M2VghLHsHQAAAMCWCdMAwP1Wg7a//OUvf7ytPvnkky9qcDe/Pv3ud7/7ZX5tX1PbqG23128ZhP2ZGozt968tz/c8pm4Gdt84ti+/+c1v/lTrnmrQG86lPuP9Z/+3v/3t/851Un+OVtW5kus07TrQn8sjc/aljK4Zc9S2fv3rX/+fvCa0+vzzz/86v2ZKBWjyaye2s2ropL8GH1N5vcxtVF8eDfa5PwZT2+H+EqaZKQMjjGXvAAAAALZMmAYA7rdjQyOtPv3007/JbTQ16JvrT1UFbvqvq2221+4yuNoPyvbbzPc7pvJ979qXCtU8Ggwew0MwdU7cFn7LMM2hkMVdwjRz9qUsFaapUGC+/1TdhHwmv99y7DXz0HV3CUuHaapGwSlhmodLmGamDIwwlr0DAAAA2DJhGgC43/pB6Rj8vKjHlVRIpQaEbxskzcHtGjS/We+i/swZHGrbU19bszR0mz1otO/9+9Rg7TH1KAa8R9sutX4tqwHu/vt6l8F52LoKjNXnvP1ZlcG4lGGaQ+f4XcI0c/alLBGmqdBOfk8ViqnZcuq61u9Tey23UfKaWX9vgaD6s76f/vrSXzOXlo956mfLqev/bdfLkmGaUXCqPwY32+KBEKaZKQMjjGXvAAAAALZMmAYA7rdDoZHexCM8fqYfQL6ZReFng6g10NzPQNMPZNcg8TH7kPp97wdl27Kqfv27OLYvOSCer8ND0J+jFbRoAbupa0FvKkxzM4vTW44N08zdl7JEmKZ/lF0LmuQ6eV2Yegxcf80cXWP6/R2FU9Ywp08ZpqmaeqyfMM3DJUwzUwZGGMveAQAAAGyZMA0A3G/HhkZyULwfHO4Ht6seDQZ862v69dpAaj/Tw10eZ9IP3vb7E/syy7F9+bOLfvYIg8M8RP3jiOpc62cuOTRjSn/d6LcxFbI4Nkwzd1/KnJBI6s/3qe+j6Wf0ymtIf80chYuaNgNWfd/HPMpqCXP61B+/fuagXE+Y5uESppkpAyOMZe8AAAAAtkyYBgDutzuERn42ONwPgvYzNdwWhulnp+nfbzRwW4Pl9V5VObtDH6bpl7dlufwu7tKXfoaJUw12wwldtM93XQNqQR+MO3TO98GJCpC0IMpUyOLIMM3sfSlzQiK9DBU+GgQHSx/yyffqA0Gjx0B1hu+xljl9asevjkv/vWfgSJjm4RKmmSkDI4xl7wAAAAC27PLy8oe8WSZMAwD3x7GhkZxVpg+29KGWQ9so/ftVCKct7wMp/fqHBp3b8jaonstzW3dxbF/uMsME3EcVhmif8QpJtOV9uO7RIPDRByfqa/vzKoMUx4Rp3mVfypyQSK9//9u+vn+vfARVf828bTadc5jTpwg3vpmxK6+LwjQPlzDNTBkYYSx7BwAAALBV19fX7+WNMmEaALhfjg2N9LPPHBoYzlkIUv9+/SBtDMS+0YdsclC2Lc/ZKNry3NZdHNOXChT1+90P7sND0QdV+hDdodlHmj44cXMevQlZZEjjmDDNMfty6DycExLpja5fA29m0anqX+ivG1sMlMzpU17DR8EpYZqHS5hmpgyMMJa9AwAAANiqq6urD/NGWdWTJ0++zXUBgG26LTRSA9Y1UN4GwKtyhpg+8HLb4OhokHZq4DVnw6lqA+gTg/Rv5NfcVvn1JQfN6++tKljUD+q3ysdQwX136BFK/Ws5O1QzdZ72s03114vbwjTvui9ldP05Vn9d6GfWGmnrVvXXh/56mtfMelRcLZuqRwdm3VnSnD5lmOZRFybqt9FvO7937jdhmpkyMMJY9g4AAABgq54+ffpF3iirev78+ce5LgCwTYdCI1OBkZvZYX42oNu/ftvgaD+Q2s80088s0bbRltV6LbDTZp3ot5OPScl9vq1uC9PcVhUOEKThIepnpJqafaYPUEydA/152s6zUSjmtjDNbftS2zq0L2VOSKTX78PUdSO1dav6a+Noeel7mpXrrmVOnybCNJPBKWGah0uYZqYMjDCWvQMAAADYotevX7+fN8lavXr16oNcHwDYpruERmqwdGqQ+i4z09QgeL+9tnxq0L0NjteAbBuUbYPv/X7ne/b7XK/dVlPf0zF9qbDR1NfCQ9Gf248mZkXpz+epmVqmzuvShyzaOXRbmOZd96X0+zN6n0P660LO0DWlrdt/n+XQNfMhhWn64FTrV7/tU30/nIYwzUwZGGEsewcAAACwRV9++eXTvElW9fjx4+9yXQBgu/rB4RrgrQHRviq8UuscGvTsB1HbzDEj/fvFIO2bR4K0Qff2KJQaJG8D5bUst9Nt4ydt+dRrx+q334cA+sHhqnokS/918FDUjE/tc17nXV4bqvrZq/qZpppRmKbOm7a8hSzadWQqvLHEvpQ5IZHegevXW/Ja0b/WXzNzZq261tX7tOrXPXQdXtKcPvX72S/P4JQwzcMlTDNTBkYYy94BAAAAbMn19fV7oyBNlUc8AcD9MgqN3EU/iHrbNvrHpPSPeCktPFPb6wfbawC2H5iu19p7Tg2at/Wq8rVjHepL/1oN4PevwUPRPzbp2MpgyChMU/rrRp3f7e9T4Y0+kHFs5b6UOSGRXv84utvO/f69qvrX7nLN7K83pwqfzOnTKEzTb6uOozDNwyVMM1MGRhjL3gEAAABsQYVo6uZYzTyTN8daXV5e/lCPf8qvBQC261Bo5Fh3GWDuZ4+oGRj61/rB9LbNPizTHo1Srx0aeG/br8rXjnVbX/rvY+p1uOfezBQ1mgmmVX8u5KOPDoVp8rUD5/Qi+1LmhER6OdvMoce89deQDA7e5Zp538M0+Vo/y9Cpvh9OQ5hmpgyMMJa9AwAAAM6jQiEvXrz4qG4I1Uwse668GTaq6lf2EQDYtttCI8foZ5GpGg0w3zYQ3WafqNBMmxWjZrLJ1+u1FqzpX2/698jXjnVbX3LWCY974iHpwx5ToZTwJuxyc85dtBcyMNN9zU9a+KVCMu2/M7yx1L6UOSGR1K49VYcea9cHe3K9266FvYcQpsntnfr74TSEaWbKwAhj2TsAAADgdF69evVB3QB68uTJt3kDSB2uCt1kPwGA7bstNHKsfuD4ZqaFnw1i19/7daYGaPt9aY986h/V0mY0aK9V5SB1aa9V5WvHOqYv/SOrbptdAu6T/lw9JvDQPxKqn3HqtjBNrdufr1V5bej3ZerRTWm0LyVDHf1rx8rr1FSQrv++ap2psEy/n4Nr5k8eQpim9CGkU38/nIYwzUwZGGEsewcAAACsrx5h9PTp0y/ypo86rp49e/ZZ9TD7CgBs3zGhkWPkTC01sFoD3zWIXH/2A8ejweXcxs2gbD/A/LNZJ0aDsfn6MZUD4kf25aIfID6wHtwb/UxT/WPWDukf3dOHL/pzenR+ZMii//p33ZcMufX7U6/ldWCqHk2EXPp9rutZhfrqmlbr9yG7qqnAX+n3pe1PhXD67fRBoqqb/Vlc9bn/nvMxVMf05LYwzVRwaq3vh/MQppkpAyOMZe8AAACAdV1dXX14eXn5Q97wUcdVBWmypwDA/XFkaOQo/QDsqGrgOWeLaPJxUVMzIuTg8qOJQd18z2Mq3+vYvvQD91UZyoH7pg+DTD1GbaSfMaqF5frAyOg8yutGfy4uuS8lAyzH1FTgo87z/j1Gddtjqer6ccx2qm768tb1bgl9EOaYmurJbWGaksGpqe1wfwnTzJSBEcaydwAAAMB6KkiTN3rUcVWPdXJTDADuv2NDI8eqwdEMvLSqwdbbwib9+lP7k7M+5Osl3/eYmhumKROPa4F7qw933Ha+9io4kufMMWGaP7vo37M/F5fcl7JUmObGRX/u91WhkVFoMNX3NQqz1Pdf73FgHxYxev9RTe3PMWGa/ro62g73lzDNTBkYYSx7BwAAAKzj5cuXv8ibPGpcjx8//q4CNDUTzevXr9/PfgIA91N7pEjV1KOX3sFFbbNmnbjLgGnbl5uvmZqF4aftVo0G1/ttHFu5rTv25c0+VeWLcJ+8w2d56tx8s+zQedQ/Zqg/Fxfel58tP7bqa7qvn1Tv0V3rbl1/pN/OoX4tLR/zdFs9mvge+23ka528Vr61He4vYZqZMjDCWPYOAAAAWF6FQY55tNOTJ0++ffHixUd182ev9erVqw+yfwAAAACNMM1MGRhhLHsHAAAALG90k6dVvW72FQAAAIDbje6zCNPcIgMjjGXvAAAAgGVdX1+/N5qVppabiQUAAADgeMI0M2VghLHsHQAAALCsemxT3txpJUgDAAAAcDfCNDNlYISx7B0AAACwrC+//PJp3typevbs2We5LgAAAACHCdPMlIERxrJ3AAAAwLKePHnybd7cqXr9+vX7uS4AAAAAhwnTzJSBEcaydwAAAMCy8sZOq1wPAAAAgNsJ08yUgRHGsncAAADAcq6vr9/LGztVNVtNrgsAAADA7YRpZsrACGPZOwAAAGA5dRMnb+xUffnll09zXQAAAABuJ0wzUwZGGMveAQAAAMsRpgEAAABYljDNTBkYYSx7BwAAACxHmAYAAODu8ncopfZeeY7snTDNTBkYYSx7BwAAACxHmAYAAODu8ncopfZeeY7snTDNTBkYYSx7BwAAACxHmAYAYHvq/9HUcfXy5ctf1IClOq6ePXv2Wf2//hJ1dXX14Z4H0PN3KKX2XnmO7F1dc7NHVfWzK9elk4ERxrJ3AAAAwHLqJk7e2Kmqm+O5LgCwbfUz/B/+4R/+vxzw3kJdXl7+kP+/oZS639UGivNatBfZD6X2XnmO7J0wzUwZGGEsewcAAAAsR5gGAB6O9jM8f64rpdQa9fTp0y/qz7wWASBMM1sGRhjL3gEAAADLEaYBgIej/QzPn+tKKbVG/d3f/d3/X3/mtQgAYZrZMjDCWPYOAAAAWI4wDQA8HO1neP5cV/evnjx58m0+KkuNqwYs1XH14sWLj+p3gCXq1atXH+R1CID/Utfc/PleVdfPXJdOBkYYy94BAAAAy6mbOHljp6oGJXJdAGD7anA7B7y3UK9fv34/9xUA4KESppkpAyOMZe8AAACA5dRNnLyxI0wDAAAAMJ8wzUwZGGEsewcAAAAsR5gGAAAAYFnCNDNlYISx7B0AAACwHGEaAAAAgGUJ08yUgRHGsncAAADAcoRpAAAAAJYlTDNTBkYYy94BAAAAyxGmAQAAAFiWMM1MGRhhLHsHAAAALEeYBgAAAGBZwjQzZWCEsewdAAAAsBxhGgAAAIBlCdPMlIERxrJ3AAAAwHKEaQAAAACWJUwzUwZGGMveAQAAAMsRpgEAAABYljDNTBkYYSx7BwAAACxHmAYAAABgWcI0M2VghLHsHQAAALAcYRoAAACAZQnTzJSBEcaydwAAAMByhGkAAAAAliVMM1MGRhjL3gEAAADLEaYBAAAAWJYwzUwZGGEsewcAAAAsR5gGAAAAYFnCNDNlYISx7B0AAACwHGEaAAAesIuvvvrqr373u9/98pNPPvni888//+s//OEP//Prr7/+i1zxlF68ePHfaz8+/fTTv6n9+v3vf/+/aj9fvnz533JdAO4nYZqZMjDCWPYOAAAAWI4wDQDANlSwosIeAhWLuPjtb3/7v3/5y1/+OKoKsVSoJb9wTX/84x//R+5HX7/+9a//TwVr8usAuH+EaWbKwAhj2TsAAABgOcI0AACPHtVMJYMQw0Utr5DDb37zmz/VbCK1LFdaQoU7+qBHBS9yHY5ToaQ+oNJmf6nAUh3HPsByqllqKrhT+9Let8I+tZ9t1px+n+rv+fUA3C/CNDNlYISx7B0AAACwHGEaAGDv2mwhFW7ol9djd/rwQ6sKY/TrLaX2I2dTaTOVmK3meNWv1r9RIKkPttwcz1UCUp2L9n43n7PJ9+tDQDfBLQDuKWGamTIwwlj2DgAAAFiOMA0AsHMZcnijZjFpwYYKaPRBh1FIYwkV9Kj3yiBP7U8FfHJ9fq7NPHPbMeoDNWsHVyKwNRmkadrnrPYtXwPg/hCmmSkDI4xl7wAAAIDlCNMAAHtWj9ip4EIFGOKlixZoqNBFW1hhlqngzVoqhNGHeqrWftzUfVYz+Nzl+LRZbKrH+dqSWkDm2DBUO9b9Zw+A+0WYZqYMjDCWvQMAAACWI0wDAOzZJ5988sVUaKHNJDIVsmizmeTyNVVIpIIfbdaVVhXS+Prrr/8i19+rdtyqV/nalDrudwnfzNWOWy4faQGqY8M3AGyPMM1MGRhhLHsHAAAALEeYBgDYswrTTD1Op80kMvX4nxbAyeWnUuGZfAxUrrNXbaahuwSM7hp0meGnWY7qc5MvjNw1FATA9gjTzJSBEcaydwAAAMByhGkAgD2rGUkqTJHLW8AiZ6wp5w7TTM1Sk+vsVTs2dwnTrH08a1/uGqZpX7NmmKZ933MqtwXA24RpZsrACGPZOwAAAGA5wjQAwJ5VmKbCARVQacvao3+mZqwp5woU1GwlGYCov9fyXHevhGmOl5+lu1RuC4C3CdPMlIERxrJ3AAAAwHKEaQCAPavHOFU4oB6b9Oe/XlSQpj0+6WbZz3z11Vd/Va99+umnf5OvraH2Jx/pVP9dy6Zmzdm7FhCp41qBlGOqBapyW0tpwZh6n3zvUbXP5Zphmju4aI/PqpqayYn/Useuwm113FrVNaOW57rAwydMM1MGRhjL3gEAAADLEaYBAHbuog+p9KGVGgTvV2wBh6qVZ4O5qPfqH+PUwhg373uRX3AKLXiy8vf+TrY420oL08ypc4dp6hzoP4cVqnl0ps/fhl1k4G2q6nX9467aY/362dO2YGv7s1XCNDNlYISx7B0AAACwHGEaAGDvKhzSBwbaDCL9OjVw2L/+aIUB8XrPmvEmB+G3MgtNHwppwYCtDajWPlWgZk7ltpZSxy7f69g6V3Cpjmv/WazP/BY+gxt00WY26ntVx676V39OheLq63JDp1L7VPuRy5dWn90209Kh60S7rpwoOHZR71PHpg9L1v7VtaOOVV3bbvblbMeo1/qTP5PWUr24ea+3vv/qWV4XKvh56PjunTDNTBkYYSx7BwAAACxHmAYAWFMNSm59NpOm9vHQfnaDrKtog9xVNahbg5SPJgY0z6UGTKdm4Kj9zll8uL/qc9eOcf158zlkQv/4q9vCRu0RcVU3M9ScxdphmrpO9NeyVqOAyqnCNP2xatUeWTa1v1W3HdN31T8ObFR1za19qT/bsjWDNbX9er98j/4RiFm1/NHEsUWYZrYMjDCWvQMAAACWI0wDAKypDcy1AbctzmZyrLX3uwZ0a8A0BzE36KJCRzkjRw1M1/Feu0+sowbL+2NaM1A4loe1EEZ97vO1KS3QUV+Xr53K2mGaNnNJu973AbypWXlOFKZ58zi/uk71wZr23y04VqGn1qPa99zQkto+3LXW7NUoTNOuDS08WdeG/nGEQnfThGlmysAIY9k7AAAAYDnCNADAmmqA/qHNZtIeXZLLT+Um4LCJWQD6x6P0x7cG1M/ZI+7kog8X1LG8r+fmqVW/bmblONZFuxbmC3PUOdbPYnJMtXM1t7WUbvv9NeqnAF4tz0DNKcI0bVagPhxT164+PPYorql1nNaecaWfAarOwTxWVVuZmab7rP+sH9XHdt3ol/NfhGlmysAIY9k7AAAAYDnCNADAifw0mJqP0zj3bCY1gFn7lI/zqP25GUx8ayC1G3xdRQsgVSDl5rFTP+1D7U/O+nCuvk2pAes28Nsf31M+rio/X3ep3NZSWlhgTq0ZMCh1zPog1M3jh05yrB6CFsY4dlaOWq/WvwmUvLMWfJhTua0ltGBFXafytdICNf3rpwjTtOtShsRa/6aOR/uaDJUsqX8kVp2HU+/V+jP12hqmwjT1M6mWjR5P1n4unWof7xNhmpkyMMJY9g4AAABYjjANAHBqo9lMzvGIozaQme87NaDYtP3N5UuYCoO0R8Lk7D6tthSouXFRoYF+1oc1B8p7U/0bVa3b9zS3tZS7hGnqnDhV3/rZaOo9M1DG7fpHBN12HrZAQtUolHBXLZzTQonH1Moz0/z0OKWpcErTz7RSfz9FmKYdpwzTtP5NPXarBURuO65LqO+9fTZugkZvzdwz9bNoDW1f+vdrIanRMWrHNJcjTDNbBkYYy94BAAAAyxGmAQDO6dyzmWwpTNMPtteAah92aD2qQerap6o22Dsa4DynOq5t/za6jxf9/h0a/D+l6lsf8MnB/yXdJXiUldvaqzpn+0f1VE/rc9WHV2pZH9yqP5cMLrXw1bGflXbcc/lS2nl16Hts+1DrtkcwrXmNaIGU/jFPpUIi9b43M4D1fgoFrdmnVP1qx7I+I+1nzxbCNKX27eZRTm/9XK7lHvM0TZhmpgyMMJa9AwAAAJYjTAMAbMRbs5nkYN4athSmabMk9I+MqcHeNpPERODjpwHfGniN5WfRZhzqwyBbfBxV9bcPNqw5iH+s/nEvVfXfh8IISxCmWUYfgrit1pgBqAV6bq4DbwUd0tphmvYop6oMr3Qu+uBI/bn2edje57Zzq/a/XXOnZqxZW/vZU1XXzhY2mvpZtIb2/nV8WhCsQk/tc9P/fKo+tuXn6NV9IEwzUwZGGMveAQAAAMsRpgEAtqAG5TKIcYrBwy2Fadq+ZPCkzUozNVg5+poTuqjB5wwT1N8nZns4q37gt/XzjH17oz5rfbinH6zm/miznFTVOVufr/qz/l7HdM3PWp1r9X7HfHbWDtP82UW7fh6arSTPx7XDNP2sT4euTf017NER4aQ1VG9aoKft89TPojX0YZ6p6o9TH7xZ8/N9nwnTzJSBEcaydwAAAMByhGkAgDOaDGK0R3/kymvYUpimhWZy1oS2LxU26peXNuCay9dWfcnHc9Wgby3L/d+AN4P7bT9P9fk6pHrYf/brc//oTIP3nE599tYOjhxS5+fUdW1pFa44JtzT1jsUcFnQT9eCQ9eoDZ2LF/2j/k5xzJr2GWlVx6YFxfr9qOM29XOJ/0eYZqYMjDCWvQMAAACWI0wDAJxaDSZPBTHO8TigLYVp2uNR8tEotQ85iNmW1/oTj39ay08D0S3A06qbhebcg89vqR71+3sz8Hvu/fzZIHntXx5bHpY2a805Hx/U2+Dn7eJQwOVcttCnLvzUrlt6dY8I08yUgRHGsncAAADAcoRpAIBTyMHkVjWofKIZCSZtKUzzZxd9wOJAsOhnM62camaAFt5pVaGfqf5sxEXNLtH2tQI/W9jX/lEzVTczlJwl3FOfm/r8z6ncFtPqePefwzjup3ZRM4mcazarKXVOtmDlmXoyZXN9Knp1PwnTzJSBEcaydwAAAMByhGkAgDXVAGALrLQ61yw0U9q+ZdDiTGGanwbf28Dk1HuX6lvbh5zFZk21P7VvN49uOUsA5Bi1fy2wUn9uYeC5jll/HtR/n3t2iTwv71K5Lf6fUXDwXDM49SGMjRzDnwUwWp37PN1gn4pe3XPCNDNlYISx7B0AAACwHGEaAGBN/Qwq5xpMPqQFCmrf+pk32uBlLu8DCLmtJVXfDoUtar9OGaS5i5sQ0FmOcT/AW8dqC4GtOo59uOcmjHR2dS7W52xO5bYYz0JTdarZozqTIYy6bpwrDDcKYJx5hqvJPp07NKhXD4cwzUwZGGEsewcAAAAsR5gGAFhTDbLVAOChYMg5mZ3jeG3GjanHcuXMK1UVLKiAQa67ptyHu1Ruayk1+J3vdWwJrmzbaBaa9tlvx/5Ux7HecyqEUft3pmvwZACj9ahezy84hVFYpWprYRW9ut+EaWbKwAhj2TsAAABgOcI0AMC51SDvTeji5IOF9d41IDinclsPXX3PNYBagZV8rWa8yIHWVlPhm7XUDCA5k9CxldtaSn3G8r2OrTV7V73a2kxR900do/Y5bzN09LMhtXNmzTDNoUBPHd/RObum+r4zgNEe79eWr9mTgcmwSjvP2t/zi9amVw+bMM1MGRhhLHsHAAAALEeYBgBYUw0U1kDg1ON2arCuPf6mVRsAznV5W/WphS7ytTWMwjR1HGt5Dby2mWgqQNIGgmt5vz7b0IIgdQ5uefaoLWs9rDDZ1CxMa4dp+mBDO9fyejt1zq4pAxg5Q1Xt35o9mXJsn6r6r1ubXj18wjQzZWCEsewdAAAAsBxhGgBgTW0wMGdyaYPMrTJUMxW+2ZIt7F/r7akGNUdhmhoAruVTIahDr3Fe9fnJ827t2XAemuxhBQ9qRpF2fVg7TNOuAX2QLU2ds2tqvaiA1tR18hwBkb5Po8932+9cvia9eviEaWbKwAhj2TsAAABgOcI0AMCaRmGa9ligfuC5n82k/uzXP4UaOKz3ve3RN+17yuWn1mb9OdVA6yhM02bn6Jc1a4cJ7qI+Z7U/fW1hNpbcp5tzZfj5W9hFm+GoDZBXtcfMTA3w85bhI3Gqh2t+/tu1qNXUzF5T5+yapsJF/Xl2joBImz1rok9vzrP2Wvdlq9Orh0+YZqYMjDCWvQMAAACWI0wDAKxpFKapZTWQ+GgiNNAGGKdeW8PU46aqanm/Xn0PLQS0x4HEUZimzT7TL2va1+QA/wlcZCArgwetThmoqT7kDCK5P1XV036dU6jgTPUoQyH56BnG6vPeAoF91Tmz1uds6j37MFR7//y6Ff0U0OqvlVX191q+dsBopIU1+2t9/4iztiy/bmV69cAJ08yUgRHGsncAAADAcoRpAIA1TYVpbhvgbQOIGcBZSwsPtMHCPkxwMzPHRduntl4GbfZgFKapQd9aPhWYOfWxLDXY247h1CwPWTVw3X/9WlovMiiT+9PqnAGWeu8MaFRPbwb1TxJyu+cmZ6upv99cO9bo4eR7Vt18xtd4z4Omgj6t6nzI9U9k2Keqej2/4BT06mESppkpAyOMZe8AAACA5QjTAABrmgrT/NlFLctQRtMGFHP5Gio00O3Lm4HBtg+1vB9IrCDEKR59U/3KR2uU2t/ahzZDQP/a2lqYplX1pqrNqhDH86LNWHOqY9m02RTqz/5YTT0ypR3btcNR/aNTcmA8e9TCSTczN53b5MwZuRJj7Zzt+ze69i2lztV8z35mkVz/BCZDGSuHi241CrDUslMGAINePSDCNDNlYISx7B0AAACwHGEaAGBNgzDNm7DKRDDlogYNq2L5Ktr+5awqbfacVjUQfYqZQmo/chC1hT9qAD4HMtcelO9lmCar35f2KJDq2ykH79s+Vg/zfafCNKPZdpbWjl0GaUrrX7+srZ/nzbnk5zJf53b9Y7TW/rw1o0d3ner6OmUUyshr8IkNAyy54inp1f0nTDNTBkYYy94BAAAAyxGmAQDWNPVonQpYtIG4DDa0WUXyUThraQOVU6GFtr83AYjVZwPIAE8/WNlm0Gn7U/vdenWOgdXa1+pZq9q/3I+c7ecU2gww/eeqmQrTlNbrftnS2rHK5aUd137ZKOR1ShVGqs9a2/eq+u+pQBB3k0GvU8gZcvL1U8ugT56X57K1PhW9ur+EaWbKwAhj2TsAAABgOcI0AMCa2iNrRtUPCrYAQQVFHp0ohNFmAJmYIefNa7l8La1X/fdfPWlhhhpI7UM/LXxTj+B5s5GdawO7U+GoUZimPcLo0UqfuTZLz2g2knYu9MtaeOoMwZWfZp3IxzrVvp8z2MNy6rpxhs/VQfV5P8XMX3fRAiy5/Nz06n4RppkpAyOMZe8AAACA5QjTAACnVuGCNqNJH2Kp5acesD8UmDn02hraLDk5a0Xbj6kwRpupYCoMtEeHjlmbTSd7tfYjldqjpEaDze1cyGWjY76GGpzPx8m0WWiyXwAcR5hmpgyMMJa9AwAAAJYjTAMA7Nmh8MWh19bQvd/PZkiJGXt+pptVhUeHH9s1cugRTEtoMwjdJRhz6HFVS2kzlPSPE6uqz9RNqG2VmXoA9kKYZqYMjDCWvQMAAACWI0wDAOzZocDModfW0AIUOTtP/X3qMTstpFFhiH75nrVHZWWvRk7Vw9r+Xd6jhYKO/T7maJ/vqgoU1XvmrEgAzPfs2bPP8l6LMM0RMjDCWPYOAAAAWI4wDQCwZ/0jlLLajCW5vFVu611VkKEFG25mJBnODFIzr/T7nq/vVd/DRwf617SZfT799NO/ydeWVNuv9zlmppl65FILuawZbqnPTQV8zEIDsI66r5L3WoRpjpCBEcaydwAAAMByhGkAgD1rgZQ5ldtaQr8/o0cVtdlUqio0smbg4j5qwZUKyhzqYet19bD+nussqYV8qg4FpWp2ohbiqkcw5etLWvt7Btg7YZqZMjDCWPYOAAAAWI4wDQCwZxVyqMDFnMptLaW2fSgIUgRpDrpoM860UE0FbCrEUn9mgGrNRyn12iOo2rGr/ajATFWbJabf50eDwA0A98MoTPPq1asPcl06GRhhLHsHAAAALEeYBgDg/hGiudVFhmay6vVDgaU1VKCmzTwzVcc84guA++Hy8vKHvNdSlesRMjDCWPYOAAAAWI4wDQAAD9hFBWYqoNJmgqlAy6lDNKnCULUfn3/++V+3WXNqnzx6CeDhyPssVRWwyfUIGRhhLHsHAAAALEeYBgAAAGA59SinvM/iXsuRMjDCWPYOAAAAWI4wDQAAAMByXr58+Yu8z+Jey5EyMMJY9g4AAABYjjANAAAAwHK++eabX+V9lqpanusSMjDCWPYOAAAAWI4wDQAAAMBynj59+kXeZ6mqGWtyXUIGRhjL3gEAAADLEaYBAAAAWM7jx4+/y/ssVa9fv34/1yVkYISx7B0AAACwHGEaAAAAgGVUYCbvsbTKdZmQgRHGsncAAADAcoRpAAAAAJZxdXX1Yd5jcZ/lDjIwwlj2DgAAAFiOMA0AAADAMp49e/ZZ3mOp+uabb36V6zIhAyOMZe8AAACA5QjTAAAAACzj8ePH3+U9lqq6/5LrMiEDI4xl7wAAAIDlCNMAAAAAvLtXr159kPdXqi4vL3/IdRnIwAhj2TsAAABgOcI0AAAAAO/u+fPnH+f9laqnT59+kesykIERxrJ3AAAAwHKEaQAAAADe3egRT1dXVx/mugxkYISx7B0AAACwHGEaAAAAgHczesRT1evXr9/P9RnIwAhj2TsAAABgOcI0AAAAAO9m9IinJ0+efJvrckAGRhjL3gEAAADLEaYBAAAAeDeXl5c/5L2VKo94uqMMjDCWvQMAAACWI0wDAAAAMF8FZvK+Sqvr6+v3cn0OyMAIY9k7AAAAYDnCNAAAAADz1T2UvK9S9ezZs89yXW6RgRHGsncAAADAcoRpAAAAAOZ5/fr1+3lPpVXdc8n1uUUGRhjL3gEAAADLEaYBAAAAmOf58+cf5z2VqsePH3+X63KEDIwwlr0DAAAAliNMAwAAADDP5eXlD3lPperFixcf5bocIQMjjGXvAAAAgOUI0wAAAADc3dXV1Yd5P6XV9fX1e7k+R8jACGPZOwAAAGA5wjQAAAAAd1f3TvJ+StWzZ88+y3U5UgZGGMveAQAAAMsRpgEAAAC4m9evX7+f91Ja1b2WXJ8jZWCEsewdAAAAsBxhGgAAAIC7ef78+cd5L6Xq8ePH3+W63EEGRhjL3gEAAADLEaYBAAAAuJvLy8sf8l5K1YsXLz7KdbmDDIwwlr0DAAAAliNMAwAAAHC8q6urD/M+Sqvr6+v3cn3uIAMjjGXvAAAAgOUI0wAAAAAcr+6Z5H2UqmfPnn2W63JHGRhhLHsHAAAALEeYBgAAAOA4r1+/fj/vobSqeyy5PneUgRHGsncAAADAcoRpAAAAAI7z/Pnzj/MeStXjx4+/y3WZIQMjjGXvAAAAgOUI0wAAAAAc5/Ly8oe8h1L14sWLj3JdZsjACGPZOwAAAGA5wjQAAAAAt7u6uvow75+0ur6+fi/XZ4YMjDCWvQMAAACWI0wDAAAAcLu6V5L3T6qePXv2Wa7LTBkYYSx7BwAAACxHmAYAAADgsNevX7+f905a1b2VXJ+ZMjDCWPYOAAAAWI4wDQAAAMBhz58//zjvnVQ9fvz4u1yXd5CBEcaydwAAAMByhGkAAAAADru8vPwh751UvXjx4qNcl3eQgRHGsncAAADAcoRpAAAAAMaurq4+zPsmra6vr9/L9XkHGRhhLHsHAAAALEeYBgAAAGCs7pHkfZOqZ8+efZbr8o4yMMJY9g4AAABYjjANAAAAwLTXr1+/n/dMWr18+fIXuT7vKAMjjGXvAAAAgOUI0wAAAABMe/78+cd5z6Tq8ePH3+W6LCADI4xl7wAAAIDlCNMAAAAATLu8vPwh75lUffPNN7/KdVlABkYYy94BAAAAyxGmAQAAAHjb1dXVh3m/pFU9/inXZwEZGGEsewcAAAAs5/r6+r28IVRlumIAAABgz54+ffpF3i+pquW5LgvJwAhj2TsAAABgWXlTqNWrV68+yHUBAAAAHrqaeSbvk7R6+fLlL3J9FpKBEcaydwAAAMCyRv/S6vnz5x/nugAAAAAP3TfffPOrvE9SZSbflWVghLHsHQAAALCs0TPA3SACAAAA9qjuieR9kqoK2eS6LCgDI4xl7wAAAIBlXV9fv5c3h9wkAgAAAPaoHuOU90da1eOfcn0WlIERxrJ3AAAAwPKePHnybd4galUz1+T6AAAAAA/R6HHYtTzXZWEZGGEsewcAAAAs79C/uqp69uzZZ/71FQAAAPCQ1b2PvCfSqu6d5PosLAMjjGXvAAAAgHWM/uVVX19++eXTWq8e/7TXevHixUfff//9XwoXAQAAwMNSv/fnvZCqx48ff5frsoIMjDCWvQMAAADWUeGQy8vLH/KGkRpX3Ux7/vz5x69evfog+wkAAADcL/V7fv7uX1Uhm1yXFWRghLHsHQAAALCeCoUI1MyruuFmymcAAAC4nw49AtvstCeSgRHGsncAAADAuipQM/qXWOr2qsdguckGAAAA98vo8de1PNdlJRkYYSx7BwAAAKzv+vr6vXp8kVlq5lX1TaAGAAAA7of6HT5/t29lFtoTysAIY9k7AAAA4HQqVFPPBTdTzd3ryZMn31b/sqcAAADAttS9j/y9vqruh+S6rCgDI4xl7wAAAIDzqUdAff/993/54sWLj+pG017ryy+/fJo32KaqAjXZQwAAAGBbRv+IqO4B5LqsKAMjjGXvAAAAALagZp25urr6sAIzebOtL9NBAwAAwHbV7+35u3wrj3A+sQyMMJa9AwAAANia+pdqecOtVc1ik+sDAAAA2/D06dMv8nf5qlqe67KyDIwwlr0DAAAA2KLnz59/nDfeWtWjsXJ9AAAA4Lxq5pn8Hb6VmWbPIAMjjGXvAAAAALbKM9YBAADg/hjNNFu/3+e6nEAGRhjL3gEAAABs1dXV1Yd5A67Ko54AAABge/yjmI3JwAhj2TsAAACArXr16tUHeQNOmAYAAAC2px7jlL+/t6rHP+X6nEAGRhjL3gEAAABsWd6Aa5XrAQAAAOfz9OnTL/J396panutyIhkYYSx7BwAAALBloymicz0AOLWaQa0eSVj/Cnsr/9r6+vr6ve+///4vX7x48VH9ma+fi17Ns8W+9e5DD6tv1b/qY/UzX9+CvofV03ydaVs9tls+nu2asrWe9dpx3ep1ZcvHtznXz456r/y9vVXtS67PiWRghLHsHQAAAMCW1SOd8kacMA0A51KDZ6OfTZeXlz/Uv7w+5cBVqcG858+ffzwKoD558uTbGvjLr1ubXs2zxb717kMPayC5+lT9yv2rqtfOHST45ptvflW9yn2rqt7W6/k1/Ndg/aFjW+fOOQIY9Zk/dDzrnDlX8KKdD7lfVe2acu7zoXrz7Nmzzw4d13OGMbZ8fJst/Oyo61a+d+tRrssJZWCEsewdAAAAwJaNbgjmegCwphYgyJ9HU1WDVqcKE9Tg2SjUkFU/U9ceSCt6Nc9W+9bbeg/LaDB3qs4RWKnQwmhQPqvWO3fIYUvqMz8KW2SdKtxQn/HR7ytZde6cOuiz9fOhVEjm2ONagZBTHNdm68e3bOlnx+jnw7k+W9zIwAhj2TsAAACALRvdvMz1AGAtNVA1GiA6VPWv7HNbS6oBsXzP26oG0tYcnNerebbat97We1hG/994qCqwkttZSw205/sfU+eckWMrRjOrHKo6tmsGL+p4HhsC6asev5PbWsOxoa2+6hzK7azp2BBIX9XzNY9rs/XjW7b0s6OuU/k+rc4RrKSTgRHGsncAAAAAWzYaFMn1AGAtcwZxW601CF4BhXyvY2vN8IBezbPFvvXuQw/nhH1anWLWhLmD3lWnCg9s1bsc2wpr5PaW8K7Hc+1wwV1mpMlac+aS3txwWVVdM3N7S9r68W229LNjtC9rHyuOkIERxrJ3AAAAAFsmTAPAOR36l9bH1FqD4HNmHOhrjfCAXs2z1b71tt7DGrieM4NEX2vPoDNnBo6+9jogvcSxXePRO+96PNecAeZdwm+t1j4f3iWs0mrN0M+Wj2+zpZ8ddZ7m9lstHdphhgyMMJa9AwAAANgyYRoAzulQiODv//7vf/zTn/704z/+4z/++Ld/+7dvvd5q6ZkRbhtAq/2p/frqq6/eeq2vpQbRGr2aZ4t9692HHtYjS/L9WlXfav+qDvVwzcHvQwPNVdW7P/f51h6uEQrZukOhhjqe7fNX50q+3mrp2ZHqs5zv0Vcdx3be5mt9rRUyGM0QUnXs+bB2eOu22Yaqd3VOHDquFQbJ7S5h68e32dLPjtFMSBWYynU5gwyMMJa9AwAAANgyYRoAzil//rSqQb7//M//fHPv/T/+4z+GA+FLD9KPBq1qwOzf/u3fuhGBH3/853/+57fWa7X0wHxuv5VeHZbv1eqcfevdhx6OBpWrX30P679HA+BrDcyXQ4Gkf/mXf+k6+OOP//qv//rWOq3WnIljq0a/C9SxrXOiqWNb50yu1yq3+y4OPZ6ozoFenSOjMMNaMzaNZvKpz36eD6NrytohiFHgp0Ig//7v/9518MeDx3WNxylt/fg2+X6tzvGzYzTL0No94EjdZ5ZbZO8AAAAAtmx0Az3XA4CljQbUarCvH6hqagAw113j59boZ2MO8jX1r9Nz3aolB7n0ap6t9q239R6WfK9Wfdiiqb6OBr/XerTNKJBUg95T/umf/umtdavWni1ki7IHrTJwUerYjmYyWTLMNTqe9dmfMgqZLRVk6I1mQarP/NQ1pc6R0fmwRlClGYUvMqDXjMIgV1dXH+a239WWj2+zpZ8dh8KCa36GuIP8QDCWvQMAAADYstEATq4HAEsbPYZiNABeRgO5Sw7Sj2YdmAoOlJr5ItetWnJgXq/m2Wrfelvv4WhQuWbhGBkFftYYmC+j/58dBQdGA99rzxayNfWZzh5U1TkwMprFZMlZfUazqvzf9u7YtpEsiwJoBpNFZzAhdAgTwYSwEWwEncEEIEOGrDbWkSGnMUA7cgQM2IZMYZTD4i1Qu8QFn1osssTPv+cA15jpalJ4JYld/Je/cpehRf2s5LGVLXZDWvPz0O3WtOVtivK5lnS6gtm5blO0b+TzuxjptaOb15ZlIo6U3wz0cnYAAAAAI+sWH/I4ADi3NYtV3Sf8T12s2ndsuaH71Pw5yw1mtc6oc9s3+gy78kDtZNH56PJA9+/ZuqXTIVWyyWMrdTurfOyZrSnTdEWpS5ZpunLUFmWL7udhTZnmnLv5pHyuJZ2uTLPFjlcjn9/FKK8d3U5Ila3KiayQ3wz0cnYAAAAAI+sWH/I4ADi3biG3FqQOFQlqYTyPrZx7Qa1b6Pvx40d+Sf/R3R7jnIvLZrXOqHPbN/oMSz7XkkM7v3QL35WtbknS3TamKzh0hZD7+/s/8rFn15W5DhWR3rpl0SmFgdQVGboCV/2s5LGVLQpmr6+vv+TzLDl0a6yuuFWpx8rHP5cqhuXzVQ7dPu6tW7NtUYAb+fwuRnnt6GZ16uNyZvkNQS9nBwAAADAyZRoALilff5bUotr+Qn0tAHaLfee+1UG3MF+pT+/XwmOpBbVux4HKuXcdyMdfYlZvy+dacsm57buGGXYL8zWv/d0kakG5u9XJlou/teCfz7ekijPL4nfNsrtNUWXLQtKoumuBPLf1s9Kd20o+7im63V8qeT67okVli11VSt0OLJ+rUvPZ/51SPw/d75Std0GqYlg+Z6W+nv1CTRWAuoJeZYvCz+jnd5HPt+QjXzu677Utbr/FCf773cBP5ewAAAAARta9gZ7HAcAWul05jsm5F8C7T6Qfky2KA2a1zohz23cNM6yF23zOY7PlLhJv7RZyTM65u8q16Ha+OCZbnNtux5xjstX57Ioqx2TrXZDqFkD5nMemihz5uOcy8vldXPq1463S0Va7fLFSFkbo5ewAAAAARqZMA8AlnVok2OrT/acuom1xawyzWmfUue0bfYZVVul2SHhPauF868XfU0sh/687PYx6bkc+nzWzU8og9Xe32PElddd5782Wu12NfH4Xl37t6Epbp+52wwayMEIvZwcAAAAwsu5N1jwOALaydlGtFiS3+mT6KQvMW+44YFbrjDi3fdcww7d2SfhZti77LLp/1/4spy56X7tTSgO1A0o+3rmsLZnV+dy6rPLWrcV+li1LKvuq5LS29LP1LZTKyOd3canXjrd229ryZ46VsjBCL2cHAAAAMLJu0SGPA4AtdZ/A7lILVVsvKNVC2LELkfW6uvUin1mtM+Lc9l3DDNcsLH/EDhKLKg/UQnt+DW+lSkynLHrPYs1tgbY+t/W9PfL5XHP7s1Nu+7NGnddjf69scduuQ0Y/v4tLvHZ0v2vrsfNYBpCFEXo5OwAAAICRKdMAMIr6pP97Fv3qtWuL24ocUot97/n0fH3dH7lIalbrjDi3fdcww1rIfs8CeC16f9QOHKl21civ51CqDPGRZaTRjXpuRz6fNYf37CpVc/3oEsiifpd113z7qd8rH7WL1L6Rz+/io187uu+prQtsrJSFEXo5OwAAAICRdW+s5nEA8BFqoawW1qpQsL+YVAuR9enwUz/tvVYtpNUi1v7rZi2s1X/X13uOxbNjmdU6o85t3+gzLFXmqXntly9qnvX/6s8utei9qOJCzapmtr8IvszwI8sg16Y7t/Uzc6lz+9b5rJ+VS57PmsehmS2/Uy5VfEv1uy1/ryzntWZ7ifO6GPn8Lj7qteOtW+qN8LufA7IwQi9nBwAAADAyZRoAAAC4vO62UnXdnscyiCyM0MvZAQAAAIxMmQYAAAAuq3a/yevyJefa+YYNZGGEXs4OAAAAYGTKNAAAAHBZdUuwvC6v1K2v8lgGkoURejk7AAAAgJEp0wAAAMBl3d7e/pXX5ZWHh4cveSwDycIIvZwdAAAAwMiUaQAAAOBydrvd57wmX/Ly8vIpj2cgWRihl7MDAAAAGJkyDQAAAFzO/f39H3lNXqnr9TyWwWRhhF7ODgAAAGBkXZnGp98AAABgW8/Pz7/m9fiSx8fH3/N4BpOFEXo5OwAAAICRdWWap6en3/JYAAAA4Hy6a/Kbm5u/81gGlIURejk7AAAAgJE9PDx8yTftKrXNdB4LAAAAnMdut/uc1+JLvn379s88ngFlYYRezg4AAABgZLUDTb5p51NwAAAAsJ26vVNdd+e1+HI9/vr6+kv+HQaUhRF6OTsAAACA0XVv4LnVEwAAAJxXFWVub2//ymvwJXaluSJZGKGXswMAAAAYXd3SKd+8q9Sbez4NBwAAAOdRH1rpPtCyXIfn32FgWRihl7MDAAAAGN3j4+Pv+Qbekru7uz8VagAAAGC9l5eXT90HWfaz2+0+599lYFkYoZezAwAAABjdz7aYrj+rbaaVagAAAOB96hq6dqJ5T4mmUh90ycdgcFkYoZezAwAAALgG9em3fCPvUGqnmq9fv/7r4eHhSxVsREREREREROR/qWvmunbO6+m38v3793/kdTpXIAsj9HJ2AAAAANeiCjL5hp6IiIiIiIiIbBdFmiuWhRF6OTsAAACAa/Le7adFREREREREZH3qlsrPz8+/5nU5VyQLI/RydgAAAADXpralzjf5REREREREROT03Nzc/F3X3a+vr7/k9ThXJgsj9HJ2AAAAANdot9t9rvu855t+IiIiIiIiInJ8lGgmlIURejk7AAAAgGv28vLyqW79dHd392e+ESgiIiIiIiIifepauq6pn56efsvrbSaQhRF6OTsAAACAmdQn6GrXGhERERERERHpk9fTTCgLI/RydgAAAAAAAAAATCYLI/RydgAAAAAAAAAATCYLI/RydgAAAAAAAAAATCYLI/RydgAAAAAAAAAATCYLI/RydgAAAAAAAAAATCYLI/RydgAAAAAAAAAATCYLI/RydgAAAAAAAAAATCYLI/RydgAAAAAAAAAATCYLI/RydgAAAAAAAAAATCYLI/RydgAAAAAAAAAATCYLI/RydgAAAAAAAAAATCYLI/RydgAAAAAAAAAATCYLI/RydgAAAAAAAAAATCYLI/RydgAAAAAAAAAATCYLI/RydgAAAAAAAAAATCYLI/RydgAAAAAAAAAATCYLI/RydgAAAAAAAAAATCYLI/RydgAAAAAAAAAATCYLI/RydgAAAAAAAAAATCYLI/RydgAAAAAAAAAATCYLI/RydgAAAAAAAAAATCYLI/RydgAAAAAAAAAATCYLI/RydgAAAAAAAAAATCYLI/RydgAAAAAAAAAATCYLI/RydgAAAAAAAAAATCYLI/RydgAAAAAAAAAATCYLI/RydgAAAAAAAAAATCYLI/RydgAAAAAAAAAATCYLI/RydgAAAAAAAAAATCYLI/RydgAAAAAAAAAATCYLI/RydgAAAAAAAAAATCYLI/RydgAAAAAAAAAATCYLI/RydgAAAAAAAAAATCYLI/RydgAAAAAAAAAATCYLI/RydgAAAAAAAAAATCYLI/RydgAAAAAAAAAATCYLI/RydgAAAAAAAAAATCYLI/RydgAAAAAAAAAATCYLI/RydgAAAAAAAAAATCYLI/RydgAAAAAAAAAATCYLI/RydgAAAAAAAAAATCYLI/RydgAAAAAAAAAATCYLI/RydgAAAAAAAAAATCYLI/RydgAAAAAAAAAATCYLI/RydgAAAAAAAAAATCYLI/RydgAAAAAAAAAATCYLI/RydgAAAAAAAAAATCYLI/RydgAAAAAAAAAATCYLI/RydgAAAAAAAAAATCYLI/RydgAAAAAAAAAATCYLI/RydgAAAAAAAAAATCYLI/RydgAAAAAAAAAATCYLI/RydgAAAAAAAAAATCYLI/RydgAAAAAAAAAATCYLI/RydgAAAAAAAAAATCYLI/RydgAAAAAAAAAATCYLI/RydgAAAAAAAAAATCYLI/RydgAAAAAAAAAATCYLI/RydgAAAAAAAAAATCYLI/RydgAAAAAAAAAATCYLI/RydgAAAAAAAAAATCYLI/RydgAAAAAAAAAATCYLI/RydgAAAAAAAAAATCYLI/RydgAAAAAAAAAATCYLI/RydgAAAAAAAAAATCYLI/RydgAAAAAAAAAATCYLI/RydgAAAAAAAAAATCYLI/RydgAAAAAAAAAATCYLI/RydgAAAAAAAAAATCYLI/RydgAAAAAAAAAATCYLI/RydgAAAAAAAAAAzOXfkwTXlZ0ZYd0AAAAASUVORK5CYII=;" vertex="1" parent="1">
                    <mxGeometry x="-180" y="120" width="839" height="560.45" as="geometry"/>
                </mxCell>
                <mxCell id="2" value="" style="pointerEvents=1;verticalLabelPosition=bottom;shadow=0;dashed=0;align=center;html=1;verticalAlign=top;shape=mxgraph.electrical.resistors.resistor_2;" vertex="1" parent="1">
                    <mxGeometry x="180" y="220" width="100" height="20" as="geometry"/>
                </mxCell>
                <mxCell id="3" value="" style="verticalLabelPosition=bottom;shadow=0;dashed=0;align=center;html=1;verticalAlign=top;shape=mxgraph.electrical.opto_electronics.led_2;pointerEvents=1;" vertex="1" parent="1">
                    <mxGeometry x="280" y="190" width="100" height="70" as="geometry"/>
                </mxCell>
                <mxCell id="6" value="" style="endArrow=none;html=1;" edge="1" parent="1" source="4">
                    <mxGeometry width="50" height="50" relative="1" as="geometry">
                        <mxPoint x="580" y="450" as="sourcePoint"/>
                        <mxPoint x="630" y="400" as="targetPoint"/>
                    </mxGeometry>
                </mxCell>
                <mxCell id="7" value="" style="endArrow=none;html=1;" edge="1" parent="1" source="4">
                    <mxGeometry width="50" height="50" relative="1" as="geometry">
                        <mxPoint x="580" y="450" as="sourcePoint"/>
                        <mxPoint x="630" y="400" as="targetPoint"/>
                    </mxGeometry>
                </mxCell>
                <mxCell id="8" value="200&amp;nbsp;Ω" style="text;html=1;align=center;verticalAlign=middle;resizable=0;points=[];autosize=1;strokeColor=none;fillColor=none;" vertex="1" parent="1">
                    <mxGeometry x="200" y="240" width="60" height="30" as="geometry"/>
                </mxCell>
            </root>
        </mxGraphModel>
    </diagram>
</mxfile>